ISO-10303-21;
HEADER;
/* Generated by software containing ST-Developer
 * from STEP Tools, Inc. (www.steptools.com) 
 */
/* OPTION: using custom renumber hook */

FILE_DESCRIPTION(
/* description */ ('STEP AP242 Edition 2',
'CAx-IF Rec.Pracs.---Representation and Presentation of Product Manufa
cturing Information (PMI)---4.0---2014-10-13',
'CAx-IF Rec.Pracs.---3D Tessellated Geometry---0.4---2014-09-14','2;1',
'CAx-IF Rec.Pracs.---User Defined Attributes---1.5---2016-08-15'),
/* implementation_level */ '2;1');

FILE_NAME(
/* name */ 'INA228-V-A-Meter-V2 - case-top',
/* time_stamp */ '2026-04-06T09:37:38Z',
/* author */ (''),
/* organization */ (''),
/* preprocessor_version */ 'ST-DEVELOPER v20',
/* originating_system */ 'ONSHAPE BY PTC INC, 1.213',
/* authorisation */ '  ');

FILE_SCHEMA (('AP242_MANAGED_MODEL_BASED_3D_ENGINEERING_MIM_LF { 1 0 10303 442 3 1 4 }'));
ENDSEC;

DATA;
#10=SHAPE_REPRESENTATION_RELATIONSHIP('','',#1373,#11);
#11=ADVANCED_BREP_SHAPE_REPRESENTATION('',(#1371),#2231);
#12=CIRCLE('',#1377,0.00175);
#13=CIRCLE('',#1378,0.00175);
#14=CIRCLE('',#1379,0.00175);
#15=CIRCLE('',#1381,0.00175);
#16=CIRCLE('',#1382,0.00175);
#17=CIRCLE('',#1383,0.00175);
#18=CIRCLE('',#1388,0.00375);
#19=CIRCLE('',#1389,0.00375);
#20=CIRCLE('',#1394,0.00275);
#21=CIRCLE('',#1395,0.00275);
#22=CIRCLE('',#1396,0.00275);
#23=CIRCLE('',#1397,0.00275);
#24=CIRCLE('',#1398,0.003);
#25=CIRCLE('',#1399,0.003);
#26=CIRCLE('',#1400,0.003);
#27=CIRCLE('',#1401,0.003);
#28=CIRCLE('',#1405,0.0011);
#29=CIRCLE('',#1406,0.003);
#30=CIRCLE('',#1410,0.0011);
#31=CIRCLE('',#1411,0.003);
#32=CIRCLE('',#1415,0.0011);
#33=CIRCLE('',#1416,0.003);
#34=CIRCLE('',#1420,0.0011);
#35=CIRCLE('',#1421,0.003);
#36=CIRCLE('',#1426,0.00275);
#37=CIRCLE('',#1428,0.00275);
#38=CIRCLE('',#1430,0.00275);
#39=CIRCLE('',#1432,0.00275);
#40=CIRCLE('',#1451,0.0011);
#41=CIRCLE('',#1454,0.0011);
#42=CIRCLE('',#1457,0.0011);
#43=CIRCLE('',#1460,0.0011);
#44=CIRCLE('',#1476,0.00375);
#45=CIRCLE('',#1479,0.00375);
#46=CYLINDRICAL_SURFACE('',#1376,0.00175);
#47=CYLINDRICAL_SURFACE('',#1380,0.00175);
#48=CYLINDRICAL_SURFACE('',#1425,0.00275);
#49=CYLINDRICAL_SURFACE('',#1427,0.00275);
#50=CYLINDRICAL_SURFACE('',#1429,0.00275);
#51=CYLINDRICAL_SURFACE('',#1431,0.00275);
#52=CYLINDRICAL_SURFACE('',#1449,0.003);
#53=CYLINDRICAL_SURFACE('',#1450,0.0011);
#54=CYLINDRICAL_SURFACE('',#1452,0.003);
#55=CYLINDRICAL_SURFACE('',#1453,0.0011);
#56=CYLINDRICAL_SURFACE('',#1455,0.003);
#57=CYLINDRICAL_SURFACE('',#1456,0.0011);
#58=CYLINDRICAL_SURFACE('',#1458,0.003);
#59=CYLINDRICAL_SURFACE('',#1459,0.0011);
#60=CYLINDRICAL_SURFACE('',#1475,0.00375);
#61=CYLINDRICAL_SURFACE('',#1478,0.00375);
#62=ORIENTED_EDGE('',*,*,#430,.T.);
#63=ORIENTED_EDGE('',*,*,#431,.T.);
#64=ORIENTED_EDGE('',*,*,#432,.F.);
#65=ORIENTED_EDGE('',*,*,#433,.T.);
#66=ORIENTED_EDGE('',*,*,#434,.F.);
#67=ORIENTED_EDGE('',*,*,#430,.F.);
#68=ORIENTED_EDGE('',*,*,#435,.F.);
#69=ORIENTED_EDGE('',*,*,#436,.T.);
#70=ORIENTED_EDGE('',*,*,#437,.F.);
#71=ORIENTED_EDGE('',*,*,#438,.T.);
#72=ORIENTED_EDGE('',*,*,#439,.F.);
#73=ORIENTED_EDGE('',*,*,#440,.T.);
#74=ORIENTED_EDGE('',*,*,#441,.F.);
#75=ORIENTED_EDGE('',*,*,#442,.F.);
#76=ORIENTED_EDGE('',*,*,#443,.F.);
#77=ORIENTED_EDGE('',*,*,#432,.T.);
#78=ORIENTED_EDGE('',*,*,#444,.F.);
#79=ORIENTED_EDGE('',*,*,#435,.T.);
#80=ORIENTED_EDGE('',*,*,#433,.F.);
#81=ORIENTED_EDGE('',*,*,#443,.T.);
#82=ORIENTED_EDGE('',*,*,#445,.F.);
#83=ORIENTED_EDGE('',*,*,#446,.F.);
#84=ORIENTED_EDGE('',*,*,#447,.T.);
#85=ORIENTED_EDGE('',*,*,#448,.T.);
#86=ORIENTED_EDGE('',*,*,#449,.F.);
#87=ORIENTED_EDGE('',*,*,#450,.T.);
#88=ORIENTED_EDGE('',*,*,#451,.T.);
#89=ORIENTED_EDGE('',*,*,#452,.T.);
#90=ORIENTED_EDGE('',*,*,#453,.F.);
#91=ORIENTED_EDGE('',*,*,#454,.F.);
#92=ORIENTED_EDGE('',*,*,#455,.F.);
#93=ORIENTED_EDGE('',*,*,#456,.T.);
#94=ORIENTED_EDGE('',*,*,#454,.T.);
#95=ORIENTED_EDGE('',*,*,#457,.T.);
#96=ORIENTED_EDGE('',*,*,#458,.T.);
#97=ORIENTED_EDGE('',*,*,#459,.T.);
#98=ORIENTED_EDGE('',*,*,#446,.T.);
#99=ORIENTED_EDGE('',*,*,#460,.T.);
#100=ORIENTED_EDGE('',*,*,#461,.F.);
#101=ORIENTED_EDGE('',*,*,#462,.F.);
#102=ORIENTED_EDGE('',*,*,#463,.F.);
#103=ORIENTED_EDGE('',*,*,#464,.F.);
#104=ORIENTED_EDGE('',*,*,#465,.F.);
#105=ORIENTED_EDGE('',*,*,#455,.T.);
#106=ORIENTED_EDGE('',*,*,#466,.F.);
#107=ORIENTED_EDGE('',*,*,#467,.F.);
#108=ORIENTED_EDGE('',*,*,#437,.T.);
#109=ORIENTED_EDGE('',*,*,#468,.F.);
#110=ORIENTED_EDGE('',*,*,#469,.T.);
#111=ORIENTED_EDGE('',*,*,#470,.T.);
#112=ORIENTED_EDGE('',*,*,#471,.F.);
#113=ORIENTED_EDGE('',*,*,#472,.F.);
#114=ORIENTED_EDGE('',*,*,#473,.T.);
#115=ORIENTED_EDGE('',*,*,#474,.F.);
#116=ORIENTED_EDGE('',*,*,#475,.T.);
#117=ORIENTED_EDGE('',*,*,#470,.F.);
#118=ORIENTED_EDGE('',*,*,#476,.T.);
#119=ORIENTED_EDGE('',*,*,#477,.T.);
#120=ORIENTED_EDGE('',*,*,#478,.F.);
#121=ORIENTED_EDGE('',*,*,#477,.F.);
#122=ORIENTED_EDGE('',*,*,#479,.T.);
#123=ORIENTED_EDGE('',*,*,#480,.T.);
#124=ORIENTED_EDGE('',*,*,#481,.F.);
#125=ORIENTED_EDGE('',*,*,#480,.F.);
#126=ORIENTED_EDGE('',*,*,#482,.T.);
#127=ORIENTED_EDGE('',*,*,#472,.T.);
#128=ORIENTED_EDGE('',*,*,#483,.F.);
#129=ORIENTED_EDGE('',*,*,#484,.T.);
#130=ORIENTED_EDGE('',*,*,#485,.T.);
#131=ORIENTED_EDGE('',*,*,#486,.T.);
#132=ORIENTED_EDGE('',*,*,#487,.T.);
#133=ORIENTED_EDGE('',*,*,#488,.T.);
#134=ORIENTED_EDGE('',*,*,#489,.F.);
#135=ORIENTED_EDGE('',*,*,#490,.F.);
#136=ORIENTED_EDGE('',*,*,#491,.T.);
#137=ORIENTED_EDGE('',*,*,#492,.F.);
#138=ORIENTED_EDGE('',*,*,#493,.T.);
#139=ORIENTED_EDGE('',*,*,#494,.F.);
#140=ORIENTED_EDGE('',*,*,#495,.F.);
#141=ORIENTED_EDGE('',*,*,#496,.T.);
#142=ORIENTED_EDGE('',*,*,#497,.T.);
#143=ORIENTED_EDGE('',*,*,#498,.F.);
#144=ORIENTED_EDGE('',*,*,#499,.F.);
#145=ORIENTED_EDGE('',*,*,#450,.F.);
#146=ORIENTED_EDGE('',*,*,#500,.T.);
#147=ORIENTED_EDGE('',*,*,#501,.F.);
#148=ORIENTED_EDGE('',*,*,#502,.F.);
#149=ORIENTED_EDGE('',*,*,#503,.F.);
#150=ORIENTED_EDGE('',*,*,#504,.T.);
#151=ORIENTED_EDGE('',*,*,#505,.F.);
#152=ORIENTED_EDGE('',*,*,#506,.F.);
#153=ORIENTED_EDGE('',*,*,#507,.F.);
#154=ORIENTED_EDGE('',*,*,#508,.T.);
#155=ORIENTED_EDGE('',*,*,#509,.F.);
#156=ORIENTED_EDGE('',*,*,#510,.F.);
#157=ORIENTED_EDGE('',*,*,#511,.F.);
#158=ORIENTED_EDGE('',*,*,#512,.T.);
#159=ORIENTED_EDGE('',*,*,#513,.F.);
#160=ORIENTED_EDGE('',*,*,#514,.F.);
#161=ORIENTED_EDGE('',*,*,#512,.F.);
#162=ORIENTED_EDGE('',*,*,#515,.T.);
#163=ORIENTED_EDGE('',*,*,#516,.F.);
#164=ORIENTED_EDGE('',*,*,#517,.F.);
#165=ORIENTED_EDGE('',*,*,#451,.F.);
#166=ORIENTED_EDGE('',*,*,#514,.T.);
#167=ORIENTED_EDGE('',*,*,#518,.T.);
#168=ORIENTED_EDGE('',*,*,#519,.T.);
#169=ORIENTED_EDGE('',*,*,#520,.T.);
#170=ORIENTED_EDGE('',*,*,#452,.F.);
#171=ORIENTED_EDGE('',*,*,#519,.F.);
#172=ORIENTED_EDGE('',*,*,#521,.F.);
#173=ORIENTED_EDGE('',*,*,#516,.T.);
#174=ORIENTED_EDGE('',*,*,#522,.F.);
#175=ORIENTED_EDGE('',*,*,#504,.F.);
#176=ORIENTED_EDGE('',*,*,#523,.T.);
#177=ORIENTED_EDGE('',*,*,#524,.F.);
#178=ORIENTED_EDGE('',*,*,#525,.F.);
#179=ORIENTED_EDGE('',*,*,#526,.F.);
#180=ORIENTED_EDGE('',*,*,#506,.T.);
#181=ORIENTED_EDGE('',*,*,#527,.T.);
#182=ORIENTED_EDGE('',*,*,#528,.T.);
#183=ORIENTED_EDGE('',*,*,#529,.T.);
#184=ORIENTED_EDGE('',*,*,#530,.F.);
#185=ORIENTED_EDGE('',*,*,#528,.F.);
#186=ORIENTED_EDGE('',*,*,#531,.F.);
#187=ORIENTED_EDGE('',*,*,#524,.T.);
#188=ORIENTED_EDGE('',*,*,#532,.F.);
#189=ORIENTED_EDGE('',*,*,#500,.F.);
#190=ORIENTED_EDGE('',*,*,#449,.T.);
#191=ORIENTED_EDGE('',*,*,#533,.F.);
#192=ORIENTED_EDGE('',*,*,#534,.F.);
#193=ORIENTED_EDGE('',*,*,#535,.F.);
#194=ORIENTED_EDGE('',*,*,#502,.T.);
#195=ORIENTED_EDGE('',*,*,#536,.T.);
#196=ORIENTED_EDGE('',*,*,#537,.T.);
#197=ORIENTED_EDGE('',*,*,#538,.T.);
#198=ORIENTED_EDGE('',*,*,#448,.F.);
#199=ORIENTED_EDGE('',*,*,#539,.F.);
#200=ORIENTED_EDGE('',*,*,#537,.F.);
#201=ORIENTED_EDGE('',*,*,#540,.F.);
#202=ORIENTED_EDGE('',*,*,#533,.T.);
#203=ORIENTED_EDGE('',*,*,#541,.F.);
#204=ORIENTED_EDGE('',*,*,#510,.T.);
#205=ORIENTED_EDGE('',*,*,#542,.T.);
#206=ORIENTED_EDGE('',*,*,#543,.T.);
#207=ORIENTED_EDGE('',*,*,#508,.F.);
#208=ORIENTED_EDGE('',*,*,#544,.T.);
#209=ORIENTED_EDGE('',*,*,#545,.F.);
#210=ORIENTED_EDGE('',*,*,#546,.F.);
#211=ORIENTED_EDGE('',*,*,#547,.T.);
#212=ORIENTED_EDGE('',*,*,#548,.F.);
#213=ORIENTED_EDGE('',*,*,#543,.F.);
#214=ORIENTED_EDGE('',*,*,#549,.F.);
#215=ORIENTED_EDGE('',*,*,#545,.T.);
#216=ORIENTED_EDGE('',*,*,#550,.F.);
#217=ORIENTED_EDGE('',*,*,#551,.F.);
#218=ORIENTED_EDGE('',*,*,#552,.F.);
#219=ORIENTED_EDGE('',*,*,#553,.T.);
#220=ORIENTED_EDGE('',*,*,#554,.T.);
#221=ORIENTED_EDGE('',*,*,#555,.F.);
#222=ORIENTED_EDGE('',*,*,#556,.F.);
#223=ORIENTED_EDGE('',*,*,#557,.T.);
#224=ORIENTED_EDGE('',*,*,#552,.T.);
#225=ORIENTED_EDGE('',*,*,#558,.T.);
#226=ORIENTED_EDGE('',*,*,#559,.F.);
#227=ORIENTED_EDGE('',*,*,#560,.F.);
#228=ORIENTED_EDGE('',*,*,#556,.T.);
#229=ORIENTED_EDGE('',*,*,#561,.T.);
#230=ORIENTED_EDGE('',*,*,#484,.F.);
#231=ORIENTED_EDGE('',*,*,#562,.T.);
#232=ORIENTED_EDGE('',*,*,#485,.F.);
#233=ORIENTED_EDGE('',*,*,#563,.T.);
#234=ORIENTED_EDGE('',*,*,#486,.F.);
#235=ORIENTED_EDGE('',*,*,#564,.T.);
#236=ORIENTED_EDGE('',*,*,#487,.F.);
#237=ORIENTED_EDGE('',*,*,#565,.T.);
#238=ORIENTED_EDGE('',*,*,#554,.F.);
#239=ORIENTED_EDGE('',*,*,#566,.F.);
#240=ORIENTED_EDGE('',*,*,#559,.T.);
#241=ORIENTED_EDGE('',*,*,#553,.F.);
#242=ORIENTED_EDGE('',*,*,#557,.F.);
#243=ORIENTED_EDGE('',*,*,#560,.T.);
#244=ORIENTED_EDGE('',*,*,#566,.T.);
#245=ORIENTED_EDGE('',*,*,#561,.F.);
#246=ORIENTED_EDGE('',*,*,#562,.F.);
#247=ORIENTED_EDGE('',*,*,#563,.F.);
#248=ORIENTED_EDGE('',*,*,#564,.F.);
#249=ORIENTED_EDGE('',*,*,#471,.T.);
#250=ORIENTED_EDGE('',*,*,#478,.T.);
#251=ORIENTED_EDGE('',*,*,#481,.T.);
#252=ORIENTED_EDGE('',*,*,#483,.T.);
#253=ORIENTED_EDGE('',*,*,#567,.F.);
#254=ORIENTED_EDGE('',*,*,#568,.T.);
#255=ORIENTED_EDGE('',*,*,#569,.T.);
#256=ORIENTED_EDGE('',*,*,#570,.T.);
#257=ORIENTED_EDGE('',*,*,#571,.F.);
#258=ORIENTED_EDGE('',*,*,#572,.F.);
#259=ORIENTED_EDGE('',*,*,#573,.T.);
#260=ORIENTED_EDGE('',*,*,#574,.T.);
#261=ORIENTED_EDGE('',*,*,#551,.T.);
#262=ORIENTED_EDGE('',*,*,#565,.F.);
#263=ORIENTED_EDGE('',*,*,#558,.F.);
#264=ORIENTED_EDGE('',*,*,#555,.T.);
#265=ORIENTED_EDGE('',*,*,#575,.T.);
#266=ORIENTED_EDGE('',*,*,#576,.T.);
#267=ORIENTED_EDGE('',*,*,#577,.F.);
#268=ORIENTED_EDGE('',*,*,#488,.F.);
#269=ORIENTED_EDGE('',*,*,#578,.T.);
#270=ORIENTED_EDGE('',*,*,#579,.T.);
#271=ORIENTED_EDGE('',*,*,#575,.F.);
#272=ORIENTED_EDGE('',*,*,#491,.F.);
#273=ORIENTED_EDGE('',*,*,#580,.F.);
#274=ORIENTED_EDGE('',*,*,#578,.F.);
#275=ORIENTED_EDGE('',*,*,#490,.T.);
#276=ORIENTED_EDGE('',*,*,#581,.T.);
#277=ORIENTED_EDGE('',*,*,#568,.F.);
#278=ORIENTED_EDGE('',*,*,#582,.F.);
#279=ORIENTED_EDGE('',*,*,#492,.T.);
#280=ORIENTED_EDGE('',*,*,#583,.T.);
#281=ORIENTED_EDGE('',*,*,#569,.F.);
#282=ORIENTED_EDGE('',*,*,#583,.F.);
#283=ORIENTED_EDGE('',*,*,#499,.T.);
#284=ORIENTED_EDGE('',*,*,#584,.T.);
#285=ORIENTED_EDGE('',*,*,#570,.F.);
#286=ORIENTED_EDGE('',*,*,#584,.F.);
#287=ORIENTED_EDGE('',*,*,#498,.T.);
#288=ORIENTED_EDGE('',*,*,#585,.T.);
#289=ORIENTED_EDGE('',*,*,#586,.T.);
#290=ORIENTED_EDGE('',*,*,#571,.T.);
#291=ORIENTED_EDGE('',*,*,#585,.F.);
#292=ORIENTED_EDGE('',*,*,#497,.F.);
#293=ORIENTED_EDGE('',*,*,#587,.T.);
#294=ORIENTED_EDGE('',*,*,#572,.T.);
#295=ORIENTED_EDGE('',*,*,#586,.F.);
#296=ORIENTED_EDGE('',*,*,#496,.F.);
#297=ORIENTED_EDGE('',*,*,#573,.F.);
#298=ORIENTED_EDGE('',*,*,#587,.F.);
#299=ORIENTED_EDGE('',*,*,#495,.T.);
#300=ORIENTED_EDGE('',*,*,#588,.T.);
#301=ORIENTED_EDGE('',*,*,#574,.F.);
#302=ORIENTED_EDGE('',*,*,#588,.F.);
#303=ORIENTED_EDGE('',*,*,#494,.T.);
#304=ORIENTED_EDGE('',*,*,#589,.T.);
#305=ORIENTED_EDGE('',*,*,#590,.F.);
#306=ORIENTED_EDGE('',*,*,#581,.F.);
#307=ORIENTED_EDGE('',*,*,#489,.T.);
#308=ORIENTED_EDGE('',*,*,#577,.T.);
#309=ORIENTED_EDGE('',*,*,#582,.T.);
#310=ORIENTED_EDGE('',*,*,#567,.T.);
#311=ORIENTED_EDGE('',*,*,#589,.F.);
#312=ORIENTED_EDGE('',*,*,#493,.F.);
#313=ORIENTED_EDGE('',*,*,#576,.F.);
#314=ORIENTED_EDGE('',*,*,#579,.F.);
#315=ORIENTED_EDGE('',*,*,#580,.T.);
#316=ORIENTED_EDGE('',*,*,#590,.T.);
#317=ORIENTED_EDGE('',*,*,#518,.F.);
#318=ORIENTED_EDGE('',*,*,#513,.T.);
#319=ORIENTED_EDGE('',*,*,#517,.T.);
#320=ORIENTED_EDGE('',*,*,#521,.T.);
#321=ORIENTED_EDGE('',*,*,#520,.F.);
#322=ORIENTED_EDGE('',*,*,#591,.F.);
#323=ORIENTED_EDGE('',*,*,#527,.F.);
#324=ORIENTED_EDGE('',*,*,#505,.T.);
#325=ORIENTED_EDGE('',*,*,#525,.T.);
#326=ORIENTED_EDGE('',*,*,#531,.T.);
#327=ORIENTED_EDGE('',*,*,#529,.F.);
#328=ORIENTED_EDGE('',*,*,#592,.F.);
#329=ORIENTED_EDGE('',*,*,#536,.F.);
#330=ORIENTED_EDGE('',*,*,#501,.T.);
#331=ORIENTED_EDGE('',*,*,#534,.T.);
#332=ORIENTED_EDGE('',*,*,#540,.T.);
#333=ORIENTED_EDGE('',*,*,#538,.F.);
#334=ORIENTED_EDGE('',*,*,#593,.F.);
#335=ORIENTED_EDGE('',*,*,#542,.F.);
#336=ORIENTED_EDGE('',*,*,#509,.T.);
#337=ORIENTED_EDGE('',*,*,#546,.T.);
#338=ORIENTED_EDGE('',*,*,#549,.T.);
#339=ORIENTED_EDGE('',*,*,#547,.F.);
#340=ORIENTED_EDGE('',*,*,#594,.F.);
#341=ORIENTED_EDGE('',*,*,#594,.T.);
#342=ORIENTED_EDGE('',*,*,#591,.T.);
#343=ORIENTED_EDGE('',*,*,#592,.T.);
#344=ORIENTED_EDGE('',*,*,#593,.T.);
#345=ORIENTED_EDGE('',*,*,#523,.F.);
#346=ORIENTED_EDGE('',*,*,#503,.T.);
#347=ORIENTED_EDGE('',*,*,#535,.T.);
#348=ORIENTED_EDGE('',*,*,#539,.T.);
#349=ORIENTED_EDGE('',*,*,#447,.F.);
#350=ORIENTED_EDGE('',*,*,#459,.F.);
#351=ORIENTED_EDGE('',*,*,#595,.T.);
#352=ORIENTED_EDGE('',*,*,#532,.T.);
#353=ORIENTED_EDGE('',*,*,#515,.F.);
#354=ORIENTED_EDGE('',*,*,#511,.T.);
#355=ORIENTED_EDGE('',*,*,#541,.T.);
#356=ORIENTED_EDGE('',*,*,#548,.T.);
#357=ORIENTED_EDGE('',*,*,#596,.F.);
#358=ORIENTED_EDGE('',*,*,#457,.F.);
#359=ORIENTED_EDGE('',*,*,#453,.T.);
#360=ORIENTED_EDGE('',*,*,#522,.T.);
#361=ORIENTED_EDGE('',*,*,#507,.T.);
#362=ORIENTED_EDGE('',*,*,#526,.T.);
#363=ORIENTED_EDGE('',*,*,#530,.T.);
#364=ORIENTED_EDGE('',*,*,#595,.F.);
#365=ORIENTED_EDGE('',*,*,#458,.F.);
#366=ORIENTED_EDGE('',*,*,#596,.T.);
#367=ORIENTED_EDGE('',*,*,#550,.T.);
#368=ORIENTED_EDGE('',*,*,#544,.F.);
#369=ORIENTED_EDGE('',*,*,#463,.T.);
#370=ORIENTED_EDGE('',*,*,#597,.F.);
#371=ORIENTED_EDGE('',*,*,#598,.F.);
#372=ORIENTED_EDGE('',*,*,#599,.T.);
#373=ORIENTED_EDGE('',*,*,#462,.T.);
#374=ORIENTED_EDGE('',*,*,#600,.F.);
#375=ORIENTED_EDGE('',*,*,#601,.F.);
#376=ORIENTED_EDGE('',*,*,#597,.T.);
#377=ORIENTED_EDGE('',*,*,#602,.F.);
#378=ORIENTED_EDGE('',*,*,#441,.T.);
#379=ORIENTED_EDGE('',*,*,#603,.F.);
#380=ORIENTED_EDGE('',*,*,#600,.T.);
#381=ORIENTED_EDGE('',*,*,#461,.T.);
#382=ORIENTED_EDGE('',*,*,#464,.T.);
#383=ORIENTED_EDGE('',*,*,#599,.F.);
#384=ORIENTED_EDGE('',*,*,#604,.F.);
#385=ORIENTED_EDGE('',*,*,#466,.T.);
#386=ORIENTED_EDGE('',*,*,#605,.F.);
#387=ORIENTED_EDGE('',*,*,#606,.T.);
#388=ORIENTED_EDGE('',*,*,#438,.F.);
#389=ORIENTED_EDGE('',*,*,#467,.T.);
#390=ORIENTED_EDGE('',*,*,#604,.T.);
#391=ORIENTED_EDGE('',*,*,#598,.T.);
#392=ORIENTED_EDGE('',*,*,#601,.T.);
#393=ORIENTED_EDGE('',*,*,#603,.T.);
#394=ORIENTED_EDGE('',*,*,#440,.F.);
#395=ORIENTED_EDGE('',*,*,#607,.T.);
#396=ORIENTED_EDGE('',*,*,#608,.F.);
#397=ORIENTED_EDGE('',*,*,#473,.F.);
#398=ORIENTED_EDGE('',*,*,#482,.F.);
#399=ORIENTED_EDGE('',*,*,#479,.F.);
#400=ORIENTED_EDGE('',*,*,#476,.F.);
#401=ORIENTED_EDGE('',*,*,#469,.F.);
#402=ORIENTED_EDGE('',*,*,#444,.T.);
#403=ORIENTED_EDGE('',*,*,#456,.F.);
#404=ORIENTED_EDGE('',*,*,#465,.T.);
#405=ORIENTED_EDGE('',*,*,#436,.F.);
#406=ORIENTED_EDGE('',*,*,#445,.T.);
#407=ORIENTED_EDGE('',*,*,#442,.T.);
#408=ORIENTED_EDGE('',*,*,#602,.T.);
#409=ORIENTED_EDGE('',*,*,#460,.F.);
#410=ORIENTED_EDGE('',*,*,#605,.T.);
#411=ORIENTED_EDGE('',*,*,#468,.T.);
#412=ORIENTED_EDGE('',*,*,#609,.F.);
#413=ORIENTED_EDGE('',*,*,#610,.F.);
#414=ORIENTED_EDGE('',*,*,#475,.F.);
#415=ORIENTED_EDGE('',*,*,#611,.F.);
#416=ORIENTED_EDGE('',*,*,#612,.T.);
#417=ORIENTED_EDGE('',*,*,#609,.T.);
#418=ORIENTED_EDGE('',*,*,#608,.T.);
#419=ORIENTED_EDGE('',*,*,#613,.F.);
#420=ORIENTED_EDGE('',*,*,#611,.T.);
#421=ORIENTED_EDGE('',*,*,#474,.T.);
#422=ORIENTED_EDGE('',*,*,#610,.T.);
#423=ORIENTED_EDGE('',*,*,#612,.F.);
#424=ORIENTED_EDGE('',*,*,#613,.T.);
#425=ORIENTED_EDGE('',*,*,#607,.F.);
#426=ORIENTED_EDGE('',*,*,#439,.T.);
#427=ORIENTED_EDGE('',*,*,#431,.F.);
#428=ORIENTED_EDGE('',*,*,#434,.T.);
#429=ORIENTED_EDGE('',*,*,#606,.F.);
#430=EDGE_CURVE('',#614,#615,#742,.T.);
#431=EDGE_CURVE('',#615,#616,#743,.T.);
#432=EDGE_CURVE('',#617,#616,#744,.T.);
#433=EDGE_CURVE('',#617,#614,#745,.T.);
#434=EDGE_CURVE('',#615,#618,#12,.F.);
#435=EDGE_CURVE('',#619,#614,#13,.T.);
#436=EDGE_CURVE('',#619,#620,#746,.T.);
#437=EDGE_CURVE('',#621,#620,#14,.T.);
#438=EDGE_CURVE('',#621,#618,#747,.T.);
#439=EDGE_CURVE('',#622,#616,#15,.F.);
#440=EDGE_CURVE('',#622,#623,#748,.F.);
#441=EDGE_CURVE('',#624,#623,#16,.T.);
#442=EDGE_CURVE('',#625,#624,#749,.T.);
#443=EDGE_CURVE('',#617,#625,#17,.T.);
#444=EDGE_CURVE('',#619,#626,#750,.T.);
#445=EDGE_CURVE('',#627,#625,#751,.T.);
#446=EDGE_CURVE('',#628,#627,#752,.T.);
#447=EDGE_CURVE('',#628,#629,#753,.T.);
#448=EDGE_CURVE('',#629,#630,#754,.T.);
#449=EDGE_CURVE('',#631,#630,#755,.T.);
#450=EDGE_CURVE('',#631,#632,#756,.T.);
#451=EDGE_CURVE('',#632,#633,#757,.T.);
#452=EDGE_CURVE('',#633,#634,#758,.T.);
#453=EDGE_CURVE('',#635,#634,#759,.T.);
#454=EDGE_CURVE('',#626,#635,#760,.T.);
#455=EDGE_CURVE('',#636,#637,#761,.T.);
#456=EDGE_CURVE('',#636,#626,#762,.T.);
#457=EDGE_CURVE('',#635,#638,#763,.T.);
#458=EDGE_CURVE('',#638,#639,#764,.T.);
#459=EDGE_CURVE('',#639,#628,#765,.T.);
#460=EDGE_CURVE('',#627,#640,#766,.T.);
#461=EDGE_CURVE('',#641,#640,#767,.T.);
#462=EDGE_CURVE('',#642,#641,#768,.T.);
#463=EDGE_CURVE('',#643,#642,#769,.T.);
#464=EDGE_CURVE('',#637,#643,#770,.T.);
#465=EDGE_CURVE('',#636,#620,#771,.T.);
#466=EDGE_CURVE('',#644,#637,#772,.T.);
#467=EDGE_CURVE('',#621,#644,#773,.T.);
#468=EDGE_CURVE('',#645,#646,#18,.T.);
#469=EDGE_CURVE('',#645,#647,#774,.T.);
#470=EDGE_CURVE('',#647,#648,#775,.T.);
#471=EDGE_CURVE('',#649,#648,#776,.T.);
#472=EDGE_CURVE('',#650,#649,#777,.T.);
#473=EDGE_CURVE('',#650,#651,#778,.T.);
#474=EDGE_CURVE('',#652,#651,#19,.T.);
#475=EDGE_CURVE('',#652,#646,#779,.T.);
#476=EDGE_CURVE('',#647,#653,#780,.T.);
#477=EDGE_CURVE('',#653,#654,#781,.T.);
#478=EDGE_CURVE('',#648,#654,#782,.T.);
#479=EDGE_CURVE('',#653,#655,#783,.T.);
#480=EDGE_CURVE('',#655,#656,#784,.T.);
#481=EDGE_CURVE('',#654,#656,#785,.T.);
#482=EDGE_CURVE('',#655,#650,#786,.T.);
#483=EDGE_CURVE('',#656,#649,#787,.T.);
#484=EDGE_CURVE('',#657,#657,#20,.T.);
#485=EDGE_CURVE('',#658,#658,#21,.T.);
#486=EDGE_CURVE('',#659,#659,#22,.T.);
#487=EDGE_CURVE('',#660,#660,#23,.T.);
#488=EDGE_CURVE('',#661,#662,#788,.T.);
#489=EDGE_CURVE('',#663,#662,#789,.T.);
#490=EDGE_CURVE('',#664,#663,#790,.T.);
#491=EDGE_CURVE('',#664,#661,#791,.T.);
#492=EDGE_CURVE('',#665,#666,#792,.T.);
#493=EDGE_CURVE('',#665,#667,#793,.T.);
#494=EDGE_CURVE('',#668,#667,#794,.T.);
#495=EDGE_CURVE('',#669,#668,#795,.T.);
#496=EDGE_CURVE('',#669,#670,#796,.T.);
#497=EDGE_CURVE('',#670,#671,#797,.T.);
#498=EDGE_CURVE('',#672,#671,#798,.T.);
#499=EDGE_CURVE('',#666,#672,#799,.T.);
#500=EDGE_CURVE('',#631,#673,#800,.T.);
#501=EDGE_CURVE('',#674,#673,#24,.F.);
#502=EDGE_CURVE('',#675,#674,#801,.T.);
#503=EDGE_CURVE('',#676,#675,#802,.T.);
#504=EDGE_CURVE('',#676,#677,#803,.T.);
#505=EDGE_CURVE('',#678,#677,#25,.F.);
#506=EDGE_CURVE('',#679,#678,#804,.T.);
#507=EDGE_CURVE('',#680,#679,#805,.T.);
#508=EDGE_CURVE('',#680,#681,#806,.T.);
#509=EDGE_CURVE('',#682,#681,#26,.F.);
#510=EDGE_CURVE('',#683,#682,#807,.T.);
#511=EDGE_CURVE('',#684,#683,#808,.T.);
#512=EDGE_CURVE('',#684,#685,#809,.T.);
#513=EDGE_CURVE('',#686,#685,#27,.F.);
#514=EDGE_CURVE('',#632,#686,#810,.T.);
#515=EDGE_CURVE('',#684,#687,#811,.T.);
#516=EDGE_CURVE('',#688,#687,#812,.T.);
#517=EDGE_CURVE('',#685,#688,#813,.T.);
#518=EDGE_CURVE('',#686,#689,#814,.T.);
#519=EDGE_CURVE('',#689,#633,#815,.T.);
#520=EDGE_CURVE('',#690,#690,#28,.T.);
#521=EDGE_CURVE('',#688,#689,#29,.T.);
#522=EDGE_CURVE('',#634,#687,#816,.T.);
#523=EDGE_CURVE('',#676,#691,#817,.T.);
#524=EDGE_CURVE('',#692,#691,#818,.T.);
#525=EDGE_CURVE('',#677,#692,#819,.T.);
#526=EDGE_CURVE('',#679,#693,#820,.T.);
#527=EDGE_CURVE('',#678,#694,#821,.T.);
#528=EDGE_CURVE('',#694,#693,#822,.T.);
#529=EDGE_CURVE('',#695,#695,#30,.T.);
#530=EDGE_CURVE('',#693,#696,#823,.T.);
#531=EDGE_CURVE('',#692,#694,#31,.T.);
#532=EDGE_CURVE('',#696,#691,#824,.T.);
#533=EDGE_CURVE('',#697,#630,#825,.T.);
#534=EDGE_CURVE('',#673,#697,#826,.T.);
#535=EDGE_CURVE('',#675,#698,#827,.T.);
#536=EDGE_CURVE('',#674,#699,#828,.T.);
#537=EDGE_CURVE('',#699,#698,#829,.T.);
#538=EDGE_CURVE('',#700,#700,#32,.T.);
#539=EDGE_CURVE('',#698,#629,#830,.T.);
#540=EDGE_CURVE('',#697,#699,#33,.T.);
#541=EDGE_CURVE('',#683,#701,#831,.T.);
#542=EDGE_CURVE('',#682,#702,#832,.T.);
#543=EDGE_CURVE('',#702,#701,#833,.T.);
#544=EDGE_CURVE('',#680,#703,#834,.T.);
#545=EDGE_CURVE('',#704,#703,#835,.T.);
#546=EDGE_CURVE('',#681,#704,#836,.T.);
#547=EDGE_CURVE('',#705,#705,#34,.T.);
#548=EDGE_CURVE('',#701,#706,#837,.T.);
#549=EDGE_CURVE('',#704,#702,#35,.T.);
#550=EDGE_CURVE('',#706,#703,#838,.T.);
#551=EDGE_CURVE('',#707,#708,#839,.T.);
#552=EDGE_CURVE('',#709,#707,#840,.T.);
#553=EDGE_CURVE('',#709,#710,#841,.T.);
#554=EDGE_CURVE('',#710,#708,#842,.T.);
#555=EDGE_CURVE('',#711,#707,#843,.T.);
#556=EDGE_CURVE('',#712,#711,#844,.T.);
#557=EDGE_CURVE('',#712,#709,#845,.T.);
#558=EDGE_CURVE('',#711,#713,#846,.T.);
#559=EDGE_CURVE('',#714,#713,#847,.T.);
#560=EDGE_CURVE('',#712,#714,#848,.T.);
#561=EDGE_CURVE('',#715,#715,#36,.T.);
#562=EDGE_CURVE('',#716,#716,#37,.T.);
#563=EDGE_CURVE('',#717,#717,#38,.T.);
#564=EDGE_CURVE('',#718,#718,#39,.T.);
#565=EDGE_CURVE('',#713,#708,#849,.T.);
#566=EDGE_CURVE('',#714,#710,#850,.T.);
#567=EDGE_CURVE('',#719,#720,#851,.T.);
#568=EDGE_CURVE('',#719,#721,#852,.T.);
#569=EDGE_CURVE('',#721,#722,#853,.T.);
#570=EDGE_CURVE('',#722,#723,#854,.T.);
#571=EDGE_CURVE('',#724,#723,#855,.T.);
#572=EDGE_CURVE('',#725,#724,#856,.T.);
#573=EDGE_CURVE('',#725,#726,#857,.T.);
#574=EDGE_CURVE('',#726,#720,#858,.T.);
#575=EDGE_CURVE('',#661,#727,#859,.T.);
#576=EDGE_CURVE('',#727,#728,#860,.T.);
#577=EDGE_CURVE('',#662,#728,#861,.T.);
#578=EDGE_CURVE('',#664,#729,#862,.T.);
#579=EDGE_CURVE('',#729,#727,#863,.T.);
#580=EDGE_CURVE('',#729,#730,#864,.T.);
#581=EDGE_CURVE('',#663,#730,#865,.T.);
#582=EDGE_CURVE('',#665,#719,#866,.T.);
#583=EDGE_CURVE('',#666,#721,#867,.T.);
#584=EDGE_CURVE('',#672,#722,#868,.T.);
#585=EDGE_CURVE('',#671,#723,#869,.T.);
#586=EDGE_CURVE('',#670,#724,#870,.T.);
#587=EDGE_CURVE('',#669,#725,#871,.T.);
#588=EDGE_CURVE('',#668,#726,#872,.T.);
#589=EDGE_CURVE('',#667,#720,#873,.T.);
#590=EDGE_CURVE('',#730,#728,#874,.T.);
#591=EDGE_CURVE('',#731,#731,#40,.F.);
#592=EDGE_CURVE('',#732,#732,#41,.F.);
#593=EDGE_CURVE('',#733,#733,#42,.F.);
#594=EDGE_CURVE('',#734,#734,#43,.F.);
#595=EDGE_CURVE('',#639,#696,#875,.T.);
#596=EDGE_CURVE('',#638,#706,#876,.T.);
#597=EDGE_CURVE('',#735,#642,#877,.T.);
#598=EDGE_CURVE('',#736,#735,#878,.T.);
#599=EDGE_CURVE('',#736,#643,#879,.T.);
#600=EDGE_CURVE('',#737,#641,#880,.T.);
#601=EDGE_CURVE('',#735,#737,#881,.T.);
#602=EDGE_CURVE('',#624,#640,#882,.T.);
#603=EDGE_CURVE('',#737,#623,#883,.T.);
#604=EDGE_CURVE('',#644,#736,#884,.T.);
#605=EDGE_CURVE('',#738,#645,#885,.T.);
#606=EDGE_CURVE('',#738,#618,#886,.T.);
#607=EDGE_CURVE('',#622,#739,#887,.T.);
#608=EDGE_CURVE('',#651,#739,#888,.F.);
#609=EDGE_CURVE('',#740,#646,#889,.T.);
#610=EDGE_CURVE('',#738,#740,#44,.T.);
#611=EDGE_CURVE('',#741,#652,#890,.T.);
#612=EDGE_CURVE('',#741,#740,#891,.T.);
#613=EDGE_CURVE('',#741,#739,#45,.T.);
#614=VERTEX_POINT('',#1848);
#615=VERTEX_POINT('',#1849);
#616=VERTEX_POINT('',#1851);
#617=VERTEX_POINT('',#1853);
#618=VERTEX_POINT('',#1857);
#619=VERTEX_POINT('',#1859);
#620=VERTEX_POINT('',#1861);
#621=VERTEX_POINT('',#1863);
#622=VERTEX_POINT('',#1867);
#623=VERTEX_POINT('',#1869);
#624=VERTEX_POINT('',#1871);
#625=VERTEX_POINT('',#1873);
#626=VERTEX_POINT('',#1877);
#627=VERTEX_POINT('',#1879);
#628=VERTEX_POINT('',#1881);
#629=VERTEX_POINT('',#1883);
#630=VERTEX_POINT('',#1885);
#631=VERTEX_POINT('',#1887);
#632=VERTEX_POINT('',#1889);
#633=VERTEX_POINT('',#1891);
#634=VERTEX_POINT('',#1893);
#635=VERTEX_POINT('',#1895);
#636=VERTEX_POINT('',#1899);
#637=VERTEX_POINT('',#1900);
#638=VERTEX_POINT('',#1903);
#639=VERTEX_POINT('',#1905);
#640=VERTEX_POINT('',#1908);
#641=VERTEX_POINT('',#1910);
#642=VERTEX_POINT('',#1912);
#643=VERTEX_POINT('',#1914);
#644=VERTEX_POINT('',#1919);
#645=VERTEX_POINT('',#1923);
#646=VERTEX_POINT('',#1924);
#647=VERTEX_POINT('',#1926);
#648=VERTEX_POINT('',#1928);
#649=VERTEX_POINT('',#1930);
#650=VERTEX_POINT('',#1932);
#651=VERTEX_POINT('',#1934);
#652=VERTEX_POINT('',#1936);
#653=VERTEX_POINT('',#1940);
#654=VERTEX_POINT('',#1942);
#655=VERTEX_POINT('',#1946);
#656=VERTEX_POINT('',#1948);
#657=VERTEX_POINT('',#1955);
#658=VERTEX_POINT('',#1957);
#659=VERTEX_POINT('',#1959);
#660=VERTEX_POINT('',#1961);
#661=VERTEX_POINT('',#1963);
#662=VERTEX_POINT('',#1964);
#663=VERTEX_POINT('',#1966);
#664=VERTEX_POINT('',#1968);
#665=VERTEX_POINT('',#1971);
#666=VERTEX_POINT('',#1972);
#667=VERTEX_POINT('',#1974);
#668=VERTEX_POINT('',#1976);
#669=VERTEX_POINT('',#1978);
#670=VERTEX_POINT('',#1980);
#671=VERTEX_POINT('',#1982);
#672=VERTEX_POINT('',#1984);
#673=VERTEX_POINT('',#1987);
#674=VERTEX_POINT('',#1989);
#675=VERTEX_POINT('',#1991);
#676=VERTEX_POINT('',#1993);
#677=VERTEX_POINT('',#1995);
#678=VERTEX_POINT('',#1997);
#679=VERTEX_POINT('',#1999);
#680=VERTEX_POINT('',#2001);
#681=VERTEX_POINT('',#2003);
#682=VERTEX_POINT('',#2005);
#683=VERTEX_POINT('',#2007);
#684=VERTEX_POINT('',#2009);
#685=VERTEX_POINT('',#2011);
#686=VERTEX_POINT('',#2013);
#687=VERTEX_POINT('',#2017);
#688=VERTEX_POINT('',#2019);
#689=VERTEX_POINT('',#2023);
#690=VERTEX_POINT('',#2027);
#691=VERTEX_POINT('',#2032);
#692=VERTEX_POINT('',#2034);
#693=VERTEX_POINT('',#2038);
#694=VERTEX_POINT('',#2040);
#695=VERTEX_POINT('',#2044);
#696=VERTEX_POINT('',#2046);
#697=VERTEX_POINT('',#2051);
#698=VERTEX_POINT('',#2055);
#699=VERTEX_POINT('',#2057);
#700=VERTEX_POINT('',#2061);
#701=VERTEX_POINT('',#2066);
#702=VERTEX_POINT('',#2068);
#703=VERTEX_POINT('',#2072);
#704=VERTEX_POINT('',#2074);
#705=VERTEX_POINT('',#2078);
#706=VERTEX_POINT('',#2080);
#707=VERTEX_POINT('',#2085);
#708=VERTEX_POINT('',#2086);
#709=VERTEX_POINT('',#2088);
#710=VERTEX_POINT('',#2090);
#711=VERTEX_POINT('',#2094);
#712=VERTEX_POINT('',#2096);
#713=VERTEX_POINT('',#2100);
#714=VERTEX_POINT('',#2102);
#715=VERTEX_POINT('',#2106);
#716=VERTEX_POINT('',#2109);
#717=VERTEX_POINT('',#2112);
#718=VERTEX_POINT('',#2115);
#719=VERTEX_POINT('',#2122);
#720=VERTEX_POINT('',#2123);
#721=VERTEX_POINT('',#2125);
#722=VERTEX_POINT('',#2127);
#723=VERTEX_POINT('',#2129);
#724=VERTEX_POINT('',#2131);
#725=VERTEX_POINT('',#2133);
#726=VERTEX_POINT('',#2135);
#727=VERTEX_POINT('',#2139);
#728=VERTEX_POINT('',#2141);
#729=VERTEX_POINT('',#2145);
#730=VERTEX_POINT('',#2149);
#731=VERTEX_POINT('',#2173);
#732=VERTEX_POINT('',#2177);
#733=VERTEX_POINT('',#2181);
#734=VERTEX_POINT('',#2185);
#735=VERTEX_POINT('',#2197);
#736=VERTEX_POINT('',#2199);
#737=VERTEX_POINT('',#2203);
#738=VERTEX_POINT('',#2212);
#739=VERTEX_POINT('',#2215);
#740=VERTEX_POINT('',#2221);
#741=VERTEX_POINT('',#2225);
#742=LINE('',#1847,#892);
#743=LINE('',#1850,#893);
#744=LINE('',#1852,#894);
#745=LINE('',#1854,#895);
#746=LINE('',#1860,#896);
#747=LINE('',#1864,#897);
#748=LINE('',#1868,#898);
#749=LINE('',#1872,#899);
#750=LINE('',#1876,#900);
#751=LINE('',#1878,#901);
#752=LINE('',#1880,#902);
#753=LINE('',#1882,#903);
#754=LINE('',#1884,#904);
#755=LINE('',#1886,#905);
#756=LINE('',#1888,#906);
#757=LINE('',#1890,#907);
#758=LINE('',#1892,#908);
#759=LINE('',#1894,#909);
#760=LINE('',#1896,#910);
#761=LINE('',#1898,#911);
#762=LINE('',#1901,#912);
#763=LINE('',#1902,#913);
#764=LINE('',#1904,#914);
#765=LINE('',#1906,#915);
#766=LINE('',#1907,#916);
#767=LINE('',#1909,#917);
#768=LINE('',#1911,#918);
#769=LINE('',#1913,#919);
#770=LINE('',#1915,#920);
#771=LINE('',#1917,#921);
#772=LINE('',#1918,#922);
#773=LINE('',#1920,#923);
#774=LINE('',#1925,#924);
#775=LINE('',#1927,#925);
#776=LINE('',#1929,#926);
#777=LINE('',#1931,#927);
#778=LINE('',#1933,#928);
#779=LINE('',#1937,#929);
#780=LINE('',#1939,#930);
#781=LINE('',#1941,#931);
#782=LINE('',#1943,#932);
#783=LINE('',#1945,#933);
#784=LINE('',#1947,#934);
#785=LINE('',#1949,#935);
#786=LINE('',#1951,#936);
#787=LINE('',#1952,#937);
#788=LINE('',#1962,#938);
#789=LINE('',#1965,#939);
#790=LINE('',#1967,#940);
#791=LINE('',#1969,#941);
#792=LINE('',#1970,#942);
#793=LINE('',#1973,#943);
#794=LINE('',#1975,#944);
#795=LINE('',#1977,#945);
#796=LINE('',#1979,#946);
#797=LINE('',#1981,#947);
#798=LINE('',#1983,#948);
#799=LINE('',#1985,#949);
#800=LINE('',#1986,#950);
#801=LINE('',#1990,#951);
#802=LINE('',#1992,#952);
#803=LINE('',#1994,#953);
#804=LINE('',#1998,#954);
#805=LINE('',#2000,#955);
#806=LINE('',#2002,#956);
#807=LINE('',#2006,#957);
#808=LINE('',#2008,#958);
#809=LINE('',#2010,#959);
#810=LINE('',#2014,#960);
#811=LINE('',#2016,#961);
#812=LINE('',#2018,#962);
#813=LINE('',#2020,#963);
#814=LINE('',#2022,#964);
#815=LINE('',#2024,#965);
#816=LINE('',#2029,#966);
#817=LINE('',#2031,#967);
#818=LINE('',#2033,#968);
#819=LINE('',#2035,#969);
#820=LINE('',#2037,#970);
#821=LINE('',#2039,#971);
#822=LINE('',#2041,#972);
#823=LINE('',#2045,#973);
#824=LINE('',#2048,#974);
#825=LINE('',#2050,#975);
#826=LINE('',#2052,#976);
#827=LINE('',#2054,#977);
#828=LINE('',#2056,#978);
#829=LINE('',#2058,#979);
#830=LINE('',#2062,#980);
#831=LINE('',#2065,#981);
#832=LINE('',#2067,#982);
#833=LINE('',#2069,#983);
#834=LINE('',#2071,#984);
#835=LINE('',#2073,#985);
#836=LINE('',#2075,#986);
#837=LINE('',#2079,#987);
#838=LINE('',#2082,#988);
#839=LINE('',#2084,#989);
#840=LINE('',#2087,#990);
#841=LINE('',#2089,#991);
#842=LINE('',#2091,#992);
#843=LINE('',#2093,#993);
#844=LINE('',#2095,#994);
#845=LINE('',#2097,#995);
#846=LINE('',#2099,#996);
#847=LINE('',#2101,#997);
#848=LINE('',#2103,#998);
#849=LINE('',#2117,#999);
#850=LINE('',#2118,#1000);
#851=LINE('',#2121,#1001);
#852=LINE('',#2124,#1002);
#853=LINE('',#2126,#1003);
#854=LINE('',#2128,#1004);
#855=LINE('',#2130,#1005);
#856=LINE('',#2132,#1006);
#857=LINE('',#2134,#1007);
#858=LINE('',#2136,#1008);
#859=LINE('',#2138,#1009);
#860=LINE('',#2140,#1010);
#861=LINE('',#2142,#1011);
#862=LINE('',#2144,#1012);
#863=LINE('',#2146,#1013);
#864=LINE('',#2148,#1014);
#865=LINE('',#2150,#1015);
#866=LINE('',#2152,#1016);
#867=LINE('',#2153,#1017);
#868=LINE('',#2155,#1018);
#869=LINE('',#2157,#1019);
#870=LINE('',#2159,#1020);
#871=LINE('',#2161,#1021);
#872=LINE('',#2163,#1022);
#873=LINE('',#2165,#1023);
#874=LINE('',#2167,#1024);
#875=LINE('',#2191,#1025);
#876=LINE('',#2193,#1026);
#877=LINE('',#2196,#1027);
#878=LINE('',#2198,#1028);
#879=LINE('',#2200,#1029);
#880=LINE('',#2202,#1030);
#881=LINE('',#2204,#1031);
#882=LINE('',#2206,#1032);
#883=LINE('',#2207,#1033);
#884=LINE('',#2209,#1034);
#885=LINE('',#2211,#1035);
#886=LINE('',#2213,#1036);
#887=LINE('',#2214,#1037);
#888=LINE('',#2216,#1038);
#889=LINE('',#2220,#1039);
#890=LINE('',#2224,#1040);
#891=LINE('',#2226,#1041);
#892=VECTOR('',#1485,1.);
#893=VECTOR('',#1486,1.);
#894=VECTOR('',#1487,1.);
#895=VECTOR('',#1488,1.);
#896=VECTOR('',#1495,1.);
#897=VECTOR('',#1498,1.);
#898=VECTOR('',#1503,1.);
#899=VECTOR('',#1506,1.);
#900=VECTOR('',#1511,1.);
#901=VECTOR('',#1512,1.);
#902=VECTOR('',#1513,1.);
#903=VECTOR('',#1514,1.);
#904=VECTOR('',#1515,1.);
#905=VECTOR('',#1516,1.);
#906=VECTOR('',#1517,1.);
#907=VECTOR('',#1518,1.);
#908=VECTOR('',#1519,1.);
#909=VECTOR('',#1520,1.);
#910=VECTOR('',#1521,1.);
#911=VECTOR('',#1524,1.);
#912=VECTOR('',#1525,1.);
#913=VECTOR('',#1526,1.);
#914=VECTOR('',#1527,1.);
#915=VECTOR('',#1528,1.);
#916=VECTOR('',#1529,1.);
#917=VECTOR('',#1530,1.);
#918=VECTOR('',#1531,1.);
#919=VECTOR('',#1532,1.);
#920=VECTOR('',#1533,1.);
#921=VECTOR('',#1536,1.);
#922=VECTOR('',#1537,1.);
#923=VECTOR('',#1538,1.);
#924=VECTOR('',#1543,1.);
#925=VECTOR('',#1544,1.);
#926=VECTOR('',#1545,1.);
#927=VECTOR('',#1546,1.);
#928=VECTOR('',#1547,1.);
#929=VECTOR('',#1550,1.);
#930=VECTOR('',#1553,1.);
#931=VECTOR('',#1554,1.);
#932=VECTOR('',#1555,1.);
#933=VECTOR('',#1558,1.);
#934=VECTOR('',#1559,1.);
#935=VECTOR('',#1560,1.);
#936=VECTOR('',#1563,1.);
#937=VECTOR('',#1564,1.);
#938=VECTOR('',#1575,1.);
#939=VECTOR('',#1576,1.);
#940=VECTOR('',#1577,1.);
#941=VECTOR('',#1578,1.);
#942=VECTOR('',#1579,1.);
#943=VECTOR('',#1580,1.);
#944=VECTOR('',#1581,1.);
#945=VECTOR('',#1582,1.);
#946=VECTOR('',#1583,1.);
#947=VECTOR('',#1584,1.);
#948=VECTOR('',#1585,1.);
#949=VECTOR('',#1586,1.);
#950=VECTOR('',#1587,1.);
#951=VECTOR('',#1590,1.);
#952=VECTOR('',#1591,1.);
#953=VECTOR('',#1592,1.);
#954=VECTOR('',#1595,1.);
#955=VECTOR('',#1596,1.);
#956=VECTOR('',#1597,1.);
#957=VECTOR('',#1600,1.);
#958=VECTOR('',#1601,1.);
#959=VECTOR('',#1602,1.);
#960=VECTOR('',#1605,1.);
#961=VECTOR('',#1608,1.);
#962=VECTOR('',#1609,1.);
#963=VECTOR('',#1610,1.);
#964=VECTOR('',#1613,1.);
#965=VECTOR('',#1614,1.);
#966=VECTOR('',#1621,1.);
#967=VECTOR('',#1624,1.);
#968=VECTOR('',#1625,1.);
#969=VECTOR('',#1626,1.);
#970=VECTOR('',#1629,1.);
#971=VECTOR('',#1630,1.);
#972=VECTOR('',#1631,1.);
#973=VECTOR('',#1636,1.);
#974=VECTOR('',#1639,1.);
#975=VECTOR('',#1642,1.);
#976=VECTOR('',#1643,1.);
#977=VECTOR('',#1646,1.);
#978=VECTOR('',#1647,1.);
#979=VECTOR('',#1648,1.);
#980=VECTOR('',#1653,1.);
#981=VECTOR('',#1658,1.);
#982=VECTOR('',#1659,1.);
#983=VECTOR('',#1660,1.);
#984=VECTOR('',#1663,1.);
#985=VECTOR('',#1664,1.);
#986=VECTOR('',#1665,1.);
#987=VECTOR('',#1670,1.);
#988=VECTOR('',#1673,1.);
#989=VECTOR('',#1676,1.);
#990=VECTOR('',#1677,1.);
#991=VECTOR('',#1678,1.);
#992=VECTOR('',#1679,1.);
#993=VECTOR('',#1682,1.);
#994=VECTOR('',#1683,1.);
#995=VECTOR('',#1684,1.);
#996=VECTOR('',#1687,1.);
#997=VECTOR('',#1688,1.);
#998=VECTOR('',#1689,1.);
#999=VECTOR('',#1708,1.);
#1000=VECTOR('',#1709,1.);
#1001=VECTOR('',#1714,1.);
#1002=VECTOR('',#1715,1.);
#1003=VECTOR('',#1716,1.);
#1004=VECTOR('',#1717,1.);
#1005=VECTOR('',#1718,1.);
#1006=VECTOR('',#1719,1.);
#1007=VECTOR('',#1720,1.);
#1008=VECTOR('',#1721,1.);
#1009=VECTOR('',#1724,1.);
#1010=VECTOR('',#1725,1.);
#1011=VECTOR('',#1726,1.);
#1012=VECTOR('',#1729,1.);
#1013=VECTOR('',#1730,1.);
#1014=VECTOR('',#1733,1.);
#1015=VECTOR('',#1734,1.);
#1016=VECTOR('',#1737,1.);
#1017=VECTOR('',#1738,1.);
#1018=VECTOR('',#1741,1.);
#1019=VECTOR('',#1744,1.);
#1020=VECTOR('',#1747,1.);
#1021=VECTOR('',#1750,1.);
#1022=VECTOR('',#1753,1.);
#1023=VECTOR('',#1756,1.);
#1024=VECTOR('',#1759,1.);
#1025=VECTOR('',#1798,1.);
#1026=VECTOR('',#1801,1.);
#1027=VECTOR('',#1806,1.);
#1028=VECTOR('',#1807,1.);
#1029=VECTOR('',#1808,1.);
#1030=VECTOR('',#1811,1.);
#1031=VECTOR('',#1812,1.);
#1032=VECTOR('',#1815,1.);
#1033=VECTOR('',#1816,1.);
#1034=VECTOR('',#1819,1.);
#1035=VECTOR('',#1822,1.);
#1036=VECTOR('',#1823,1.);
#1037=VECTOR('',#1824,1.);
#1038=VECTOR('',#1825,1.);
#1039=VECTOR('',#1832,1.);
#1040=VECTOR('',#1837,1.);
#1041=VECTOR('',#1838,1.);
#1042=EDGE_LOOP('',(#62,#63,#64,#65));
#1043=EDGE_LOOP('',(#66,#67,#68,#69,#70,#71));
#1044=EDGE_LOOP('',(#72,#73,#74,#75,#76,#77));
#1045=EDGE_LOOP('',(#78,#79,#80,#81,#82,#83,#84,#85,#86,#87,#88,#89,#90,
#91));
#1046=EDGE_LOOP('',(#92,#93,#94,#95,#96,#97,#98,#99,#100,#101,#102,#103));
#1047=EDGE_LOOP('',(#104,#105,#106,#107,#108));
#1048=EDGE_LOOP('',(#109,#110,#111,#112,#113,#114,#115,#116));
#1049=EDGE_LOOP('',(#117,#118,#119,#120));
#1050=EDGE_LOOP('',(#121,#122,#123,#124));
#1051=EDGE_LOOP('',(#125,#126,#127,#128));
#1052=EDGE_LOOP('',(#129));
#1053=EDGE_LOOP('',(#130));
#1054=EDGE_LOOP('',(#131));
#1055=EDGE_LOOP('',(#132));
#1056=EDGE_LOOP('',(#133,#134,#135,#136));
#1057=EDGE_LOOP('',(#137,#138,#139,#140,#141,#142,#143,#144));
#1058=EDGE_LOOP('',(#145,#146,#147,#148,#149,#150,#151,#152,#153,#154,#155,
#156,#157,#158,#159,#160));
#1059=EDGE_LOOP('',(#161,#162,#163,#164));
#1060=EDGE_LOOP('',(#165,#166,#167,#168));
#1061=EDGE_LOOP('',(#169));
#1062=EDGE_LOOP('',(#170,#171,#172,#173,#174));
#1063=EDGE_LOOP('',(#175,#176,#177,#178));
#1064=EDGE_LOOP('',(#179,#180,#181,#182));
#1065=EDGE_LOOP('',(#183));
#1066=EDGE_LOOP('',(#184,#185,#186,#187,#188));
#1067=EDGE_LOOP('',(#189,#190,#191,#192));
#1068=EDGE_LOOP('',(#193,#194,#195,#196));
#1069=EDGE_LOOP('',(#197));
#1070=EDGE_LOOP('',(#198,#199,#200,#201,#202));
#1071=EDGE_LOOP('',(#203,#204,#205,#206));
#1072=EDGE_LOOP('',(#207,#208,#209,#210));
#1073=EDGE_LOOP('',(#211));
#1074=EDGE_LOOP('',(#212,#213,#214,#215,#216));
#1075=EDGE_LOOP('',(#217,#218,#219,#220));
#1076=EDGE_LOOP('',(#221,#222,#223,#224));
#1077=EDGE_LOOP('',(#225,#226,#227,#228));
#1078=EDGE_LOOP('',(#229));
#1079=EDGE_LOOP('',(#230));
#1080=EDGE_LOOP('',(#231));
#1081=EDGE_LOOP('',(#232));
#1082=EDGE_LOOP('',(#233));
#1083=EDGE_LOOP('',(#234));
#1084=EDGE_LOOP('',(#235));
#1085=EDGE_LOOP('',(#236));
#1086=EDGE_LOOP('',(#237,#238,#239,#240));
#1087=EDGE_LOOP('',(#241,#242,#243,#244));
#1088=EDGE_LOOP('',(#245));
#1089=EDGE_LOOP('',(#246));
#1090=EDGE_LOOP('',(#247));
#1091=EDGE_LOOP('',(#248));
#1092=EDGE_LOOP('',(#249,#250,#251,#252));
#1093=EDGE_LOOP('',(#253,#254,#255,#256,#257,#258,#259,#260));
#1094=EDGE_LOOP('',(#261,#262,#263,#264));
#1095=EDGE_LOOP('',(#265,#266,#267,#268));
#1096=EDGE_LOOP('',(#269,#270,#271,#272));
#1097=EDGE_LOOP('',(#273,#274,#275,#276));
#1098=EDGE_LOOP('',(#277,#278,#279,#280));
#1099=EDGE_LOOP('',(#281,#282,#283,#284));
#1100=EDGE_LOOP('',(#285,#286,#287,#288));
#1101=EDGE_LOOP('',(#289,#290,#291,#292));
#1102=EDGE_LOOP('',(#293,#294,#295,#296));
#1103=EDGE_LOOP('',(#297,#298,#299,#300));
#1104=EDGE_LOOP('',(#301,#302,#303,#304));
#1105=EDGE_LOOP('',(#305,#306,#307,#308));
#1106=EDGE_LOOP('',(#309,#310,#311,#312));
#1107=EDGE_LOOP('',(#313,#314,#315,#316));
#1108=EDGE_LOOP('',(#317,#318,#319,#320));
#1109=EDGE_LOOP('',(#321));
#1110=EDGE_LOOP('',(#322));
#1111=EDGE_LOOP('',(#323,#324,#325,#326));
#1112=EDGE_LOOP('',(#327));
#1113=EDGE_LOOP('',(#328));
#1114=EDGE_LOOP('',(#329,#330,#331,#332));
#1115=EDGE_LOOP('',(#333));
#1116=EDGE_LOOP('',(#334));
#1117=EDGE_LOOP('',(#335,#336,#337,#338));
#1118=EDGE_LOOP('',(#339));
#1119=EDGE_LOOP('',(#340));
#1120=EDGE_LOOP('',(#341));
#1121=EDGE_LOOP('',(#342));
#1122=EDGE_LOOP('',(#343));
#1123=EDGE_LOOP('',(#344));
#1124=EDGE_LOOP('',(#345,#346,#347,#348,#349,#350,#351,#352));
#1125=EDGE_LOOP('',(#353,#354,#355,#356,#357,#358,#359,#360));
#1126=EDGE_LOOP('',(#361,#362,#363,#364,#365,#366,#367,#368));
#1127=EDGE_LOOP('',(#369,#370,#371,#372));
#1128=EDGE_LOOP('',(#373,#374,#375,#376));
#1129=EDGE_LOOP('',(#377,#378,#379,#380,#381));
#1130=EDGE_LOOP('',(#382,#383,#384,#385));
#1131=EDGE_LOOP('',(#386,#387,#388,#389,#390,#391,#392,#393,#394,#395,#396,
#397,#398,#399,#400,#401));
#1132=EDGE_LOOP('',(#402,#403,#404,#405));
#1133=EDGE_LOOP('',(#406,#407,#408,#409));
#1134=EDGE_LOOP('',(#410,#411,#412,#413));
#1135=EDGE_LOOP('',(#414,#415,#416,#417));
#1136=EDGE_LOOP('',(#418,#419,#420,#421));
#1137=EDGE_LOOP('',(#422,#423,#424,#425,#426,#427,#428,#429));
#1138=FACE_BOUND('',#1042,.T.);
#1139=FACE_BOUND('',#1043,.T.);
#1140=FACE_BOUND('',#1044,.T.);
#1141=FACE_BOUND('',#1045,.T.);
#1142=FACE_BOUND('',#1046,.T.);
#1143=FACE_BOUND('',#1047,.T.);
#1144=FACE_BOUND('',#1048,.T.);
#1145=FACE_BOUND('',#1049,.T.);
#1146=FACE_BOUND('',#1050,.T.);
#1147=FACE_BOUND('',#1051,.T.);
#1148=FACE_BOUND('',#1052,.T.);
#1149=FACE_BOUND('',#1053,.T.);
#1150=FACE_BOUND('',#1054,.T.);
#1151=FACE_BOUND('',#1055,.T.);
#1152=FACE_BOUND('',#1056,.T.);
#1153=FACE_BOUND('',#1057,.T.);
#1154=FACE_BOUND('',#1058,.T.);
#1155=FACE_BOUND('',#1059,.T.);
#1156=FACE_BOUND('',#1060,.T.);
#1157=FACE_BOUND('',#1061,.T.);
#1158=FACE_BOUND('',#1062,.T.);
#1159=FACE_BOUND('',#1063,.T.);
#1160=FACE_BOUND('',#1064,.T.);
#1161=FACE_BOUND('',#1065,.T.);
#1162=FACE_BOUND('',#1066,.T.);
#1163=FACE_BOUND('',#1067,.T.);
#1164=FACE_BOUND('',#1068,.T.);
#1165=FACE_BOUND('',#1069,.T.);
#1166=FACE_BOUND('',#1070,.T.);
#1167=FACE_BOUND('',#1071,.T.);
#1168=FACE_BOUND('',#1072,.T.);
#1169=FACE_BOUND('',#1073,.T.);
#1170=FACE_BOUND('',#1074,.T.);
#1171=FACE_BOUND('',#1075,.T.);
#1172=FACE_BOUND('',#1076,.T.);
#1173=FACE_BOUND('',#1077,.T.);
#1174=FACE_BOUND('',#1078,.T.);
#1175=FACE_BOUND('',#1079,.T.);
#1176=FACE_BOUND('',#1080,.T.);
#1177=FACE_BOUND('',#1081,.T.);
#1178=FACE_BOUND('',#1082,.T.);
#1179=FACE_BOUND('',#1083,.T.);
#1180=FACE_BOUND('',#1084,.T.);
#1181=FACE_BOUND('',#1085,.T.);
#1182=FACE_BOUND('',#1086,.T.);
#1183=FACE_BOUND('',#1087,.T.);
#1184=FACE_BOUND('',#1088,.T.);
#1185=FACE_BOUND('',#1089,.T.);
#1186=FACE_BOUND('',#1090,.T.);
#1187=FACE_BOUND('',#1091,.T.);
#1188=FACE_BOUND('',#1092,.T.);
#1189=FACE_BOUND('',#1093,.T.);
#1190=FACE_BOUND('',#1094,.T.);
#1191=FACE_BOUND('',#1095,.T.);
#1192=FACE_BOUND('',#1096,.T.);
#1193=FACE_BOUND('',#1097,.T.);
#1194=FACE_BOUND('',#1098,.T.);
#1195=FACE_BOUND('',#1099,.T.);
#1196=FACE_BOUND('',#1100,.T.);
#1197=FACE_BOUND('',#1101,.T.);
#1198=FACE_BOUND('',#1102,.T.);
#1199=FACE_BOUND('',#1103,.T.);
#1200=FACE_BOUND('',#1104,.T.);
#1201=FACE_BOUND('',#1105,.T.);
#1202=FACE_BOUND('',#1106,.T.);
#1203=FACE_BOUND('',#1107,.T.);
#1204=FACE_BOUND('',#1108,.T.);
#1205=FACE_BOUND('',#1109,.T.);
#1206=FACE_BOUND('',#1110,.T.);
#1207=FACE_BOUND('',#1111,.T.);
#1208=FACE_BOUND('',#1112,.T.);
#1209=FACE_BOUND('',#1113,.T.);
#1210=FACE_BOUND('',#1114,.T.);
#1211=FACE_BOUND('',#1115,.T.);
#1212=FACE_BOUND('',#1116,.T.);
#1213=FACE_BOUND('',#1117,.T.);
#1214=FACE_BOUND('',#1118,.T.);
#1215=FACE_BOUND('',#1119,.T.);
#1216=FACE_BOUND('',#1120,.T.);
#1217=FACE_BOUND('',#1121,.T.);
#1218=FACE_BOUND('',#1122,.T.);
#1219=FACE_BOUND('',#1123,.T.);
#1220=FACE_BOUND('',#1124,.T.);
#1221=FACE_BOUND('',#1125,.T.);
#1222=FACE_BOUND('',#1126,.T.);
#1223=FACE_BOUND('',#1127,.T.);
#1224=FACE_BOUND('',#1128,.T.);
#1225=FACE_BOUND('',#1129,.T.);
#1226=FACE_BOUND('',#1130,.T.);
#1227=FACE_BOUND('',#1131,.T.);
#1228=FACE_BOUND('',#1132,.T.);
#1229=FACE_BOUND('',#1133,.T.);
#1230=FACE_BOUND('',#1134,.T.);
#1231=FACE_BOUND('',#1135,.T.);
#1232=FACE_BOUND('',#1136,.T.);
#1233=FACE_BOUND('',#1137,.T.);
#1234=PLANE('',#1375);
#1235=PLANE('',#1384);
#1236=PLANE('',#1385);
#1237=PLANE('',#1386);
#1238=PLANE('',#1387);
#1239=PLANE('',#1390);
#1240=PLANE('',#1391);
#1241=PLANE('',#1392);
#1242=PLANE('',#1393);
#1243=PLANE('',#1402);
#1244=PLANE('',#1403);
#1245=PLANE('',#1404);
#1246=PLANE('',#1407);
#1247=PLANE('',#1408);
#1248=PLANE('',#1409);
#1249=PLANE('',#1412);
#1250=PLANE('',#1413);
#1251=PLANE('',#1414);
#1252=PLANE('',#1417);
#1253=PLANE('',#1418);
#1254=PLANE('',#1419);
#1255=PLANE('',#1422);
#1256=PLANE('',#1423);
#1257=PLANE('',#1424);
#1258=PLANE('',#1433);
#1259=PLANE('',#1434);
#1260=PLANE('',#1435);
#1261=PLANE('',#1436);
#1262=PLANE('',#1437);
#1263=PLANE('',#1438);
#1264=PLANE('',#1439);
#1265=PLANE('',#1440);
#1266=PLANE('',#1441);
#1267=PLANE('',#1442);
#1268=PLANE('',#1443);
#1269=PLANE('',#1444);
#1270=PLANE('',#1445);
#1271=PLANE('',#1446);
#1272=PLANE('',#1447);
#1273=PLANE('',#1448);
#1274=PLANE('',#1461);
#1275=PLANE('',#1462);
#1276=PLANE('',#1463);
#1277=PLANE('',#1464);
#1278=PLANE('',#1465);
#1279=PLANE('',#1466);
#1280=PLANE('',#1467);
#1281=PLANE('',#1468);
#1282=PLANE('',#1469);
#1283=PLANE('',#1470);
#1284=PLANE('',#1471);
#1285=PLANE('',#1472);
#1286=PLANE('',#1473);
#1287=PLANE('',#1474);
#1288=PLANE('',#1477);
#1289=PLANE('',#1480);
#1290=ADVANCED_FACE('',(#1138),#1234,.T.);
#1291=ADVANCED_FACE('',(#1139),#46,.F.);
#1292=ADVANCED_FACE('',(#1140),#47,.F.);
#1293=ADVANCED_FACE('',(#1141),#1235,.F.);
#1294=ADVANCED_FACE('',(#1142),#1236,.T.);
#1295=ADVANCED_FACE('',(#1143),#1237,.F.);
#1296=ADVANCED_FACE('',(#1144),#1238,.T.);
#1297=ADVANCED_FACE('',(#1145),#1239,.T.);
#1298=ADVANCED_FACE('',(#1146),#1240,.T.);
#1299=ADVANCED_FACE('',(#1147),#1241,.T.);
#1300=ADVANCED_FACE('',(#1148,#1149,#1150,#1151,#1152,#1153,#1154),#1242,
 .F.);
#1301=ADVANCED_FACE('',(#1155),#1243,.T.);
#1302=ADVANCED_FACE('',(#1156),#1244,.F.);
#1303=ADVANCED_FACE('',(#1157,#1158),#1245,.F.);
#1304=ADVANCED_FACE('',(#1159),#1246,.T.);
#1305=ADVANCED_FACE('',(#1160),#1247,.F.);
#1306=ADVANCED_FACE('',(#1161,#1162),#1248,.F.);
#1307=ADVANCED_FACE('',(#1163),#1249,.T.);
#1308=ADVANCED_FACE('',(#1164),#1250,.F.);
#1309=ADVANCED_FACE('',(#1165,#1166),#1251,.F.);
#1310=ADVANCED_FACE('',(#1167),#1252,.F.);
#1311=ADVANCED_FACE('',(#1168),#1253,.T.);
#1312=ADVANCED_FACE('',(#1169,#1170),#1254,.F.);
#1313=ADVANCED_FACE('',(#1171),#1255,.T.);
#1314=ADVANCED_FACE('',(#1172),#1256,.T.);
#1315=ADVANCED_FACE('',(#1173),#1257,.F.);
#1316=ADVANCED_FACE('',(#1174,#1175),#48,.F.);
#1317=ADVANCED_FACE('',(#1176,#1177),#49,.F.);
#1318=ADVANCED_FACE('',(#1178,#1179),#50,.F.);
#1319=ADVANCED_FACE('',(#1180,#1181),#51,.F.);
#1320=ADVANCED_FACE('',(#1182),#1258,.F.);
#1321=ADVANCED_FACE('',(#1183,#1184,#1185,#1186,#1187,#1188),#1259,.T.);
#1322=ADVANCED_FACE('',(#1189,#1190),#1260,.F.);
#1323=ADVANCED_FACE('',(#1191),#1261,.F.);
#1324=ADVANCED_FACE('',(#1192),#1262,.F.);
#1325=ADVANCED_FACE('',(#1193),#1263,.T.);
#1326=ADVANCED_FACE('',(#1194),#1264,.T.);
#1327=ADVANCED_FACE('',(#1195),#1265,.T.);
#1328=ADVANCED_FACE('',(#1196),#1266,.T.);
#1329=ADVANCED_FACE('',(#1197),#1267,.F.);
#1330=ADVANCED_FACE('',(#1198),#1268,.F.);
#1331=ADVANCED_FACE('',(#1199),#1269,.T.);
#1332=ADVANCED_FACE('',(#1200),#1270,.T.);
#1333=ADVANCED_FACE('',(#1201),#1271,.T.);
#1334=ADVANCED_FACE('',(#1202),#1272,.F.);
#1335=ADVANCED_FACE('',(#1203),#1273,.F.);
#1336=ADVANCED_FACE('',(#1204),#52,.T.);
#1337=ADVANCED_FACE('',(#1205,#1206),#53,.F.);
#1338=ADVANCED_FACE('',(#1207),#54,.T.);
#1339=ADVANCED_FACE('',(#1208,#1209),#55,.F.);
#1340=ADVANCED_FACE('',(#1210),#56,.T.);
#1341=ADVANCED_FACE('',(#1211,#1212),#57,.F.);
#1342=ADVANCED_FACE('',(#1213),#58,.T.);
#1343=ADVANCED_FACE('',(#1214,#1215),#59,.F.);
#1344=ADVANCED_FACE('',(#1216),#1274,.F.);
#1345=ADVANCED_FACE('',(#1217),#1275,.F.);
#1346=ADVANCED_FACE('',(#1218),#1276,.F.);
#1347=ADVANCED_FACE('',(#1219),#1277,.F.);
#1348=ADVANCED_FACE('',(#1220),#1278,.F.);
#1349=ADVANCED_FACE('',(#1221),#1279,.F.);
#1350=ADVANCED_FACE('',(#1222),#1280,.F.);
#1351=ADVANCED_FACE('',(#1223),#1281,.F.);
#1352=ADVANCED_FACE('',(#1224),#1282,.F.);
#1353=ADVANCED_FACE('',(#1225),#1283,.F.);
#1354=ADVANCED_FACE('',(#1226),#1284,.F.);
#1355=ADVANCED_FACE('',(#1227),#1285,.T.);
#1356=ADVANCED_FACE('',(#1228),#1286,.T.);
#1357=ADVANCED_FACE('',(#1229),#1287,.T.);
#1358=ADVANCED_FACE('',(#1230),#60,.F.);
#1359=ADVANCED_FACE('',(#1231),#1288,.T.);
#1360=ADVANCED_FACE('',(#1232),#61,.F.);
#1361=ADVANCED_FACE('',(#1233),#1289,.T.);
#1362=CLOSED_SHELL('',(#1290,#1291,#1292,#1293,#1294,#1295,#1296,#1297,
#1298,#1299,#1300,#1301,#1302,#1303,#1304,#1305,#1306,#1307,#1308,#1309,
#1310,#1311,#1312,#1313,#1314,#1315,#1316,#1317,#1318,#1319,#1320,#1321,
#1322,#1323,#1324,#1325,#1326,#1327,#1328,#1329,#1330,#1331,#1332,#1333,
#1334,#1335,#1336,#1337,#1338,#1339,#1340,#1341,#1342,#1343,#1344,#1345,
#1346,#1347,#1348,#1349,#1350,#1351,#1352,#1353,#1354,#1355,#1356,#1357,
#1358,#1359,#1360,#1361));
#1363=STYLED_ITEM('',(#1364),#1371);
#1364=PRESENTATION_STYLE_ASSIGNMENT((#1365));
#1365=SURFACE_STYLE_USAGE(.BOTH.,#1366);
#1366=SURFACE_SIDE_STYLE('',(#1367));
#1367=SURFACE_STYLE_FILL_AREA(#1368);
#1368=FILL_AREA_STYLE('',(#1369));
#1369=FILL_AREA_STYLE_COLOUR('',#1370);
#1370=COLOUR_RGB('',0.701960784313725,0.682352941176471,0.623529411764706);
#1371=MANIFOLD_SOLID_BREP('case-top',#1362);
#1372=SHAPE_DEFINITION_REPRESENTATION(#2236,#1373);
#1373=SHAPE_REPRESENTATION('case-top',(#1374),#2231);
#1374=AXIS2_PLACEMENT_3D('',#1845,#1481,#1482);
#1375=AXIS2_PLACEMENT_3D('',#1846,#1483,#1484);
#1376=AXIS2_PLACEMENT_3D('',#1855,#1489,#1490);
#1377=AXIS2_PLACEMENT_3D('',#1856,#1491,#1492);
#1378=AXIS2_PLACEMENT_3D('',#1858,#1493,#1494);
#1379=AXIS2_PLACEMENT_3D('',#1862,#1496,#1497);
#1380=AXIS2_PLACEMENT_3D('',#1865,#1499,#1500);
#1381=AXIS2_PLACEMENT_3D('',#1866,#1501,#1502);
#1382=AXIS2_PLACEMENT_3D('',#1870,#1504,#1505);
#1383=AXIS2_PLACEMENT_3D('',#1874,#1507,#1508);
#1384=AXIS2_PLACEMENT_3D('',#1875,#1509,#1510);
#1385=AXIS2_PLACEMENT_3D('',#1897,#1522,#1523);
#1386=AXIS2_PLACEMENT_3D('',#1916,#1534,#1535);
#1387=AXIS2_PLACEMENT_3D('',#1921,#1539,#1540);
#1388=AXIS2_PLACEMENT_3D('',#1922,#1541,#1542);
#1389=AXIS2_PLACEMENT_3D('',#1935,#1548,#1549);
#1390=AXIS2_PLACEMENT_3D('',#1938,#1551,#1552);
#1391=AXIS2_PLACEMENT_3D('',#1944,#1556,#1557);
#1392=AXIS2_PLACEMENT_3D('',#1950,#1561,#1562);
#1393=AXIS2_PLACEMENT_3D('',#1953,#1565,#1566);
#1394=AXIS2_PLACEMENT_3D('',#1954,#1567,#1568);
#1395=AXIS2_PLACEMENT_3D('',#1956,#1569,#1570);
#1396=AXIS2_PLACEMENT_3D('',#1958,#1571,#1572);
#1397=AXIS2_PLACEMENT_3D('',#1960,#1573,#1574);
#1398=AXIS2_PLACEMENT_3D('',#1988,#1588,#1589);
#1399=AXIS2_PLACEMENT_3D('',#1996,#1593,#1594);
#1400=AXIS2_PLACEMENT_3D('',#2004,#1598,#1599);
#1401=AXIS2_PLACEMENT_3D('',#2012,#1603,#1604);
#1402=AXIS2_PLACEMENT_3D('',#2015,#1606,#1607);
#1403=AXIS2_PLACEMENT_3D('',#2021,#1611,#1612);
#1404=AXIS2_PLACEMENT_3D('',#2025,#1615,#1616);
#1405=AXIS2_PLACEMENT_3D('',#2026,#1617,#1618);
#1406=AXIS2_PLACEMENT_3D('',#2028,#1619,#1620);
#1407=AXIS2_PLACEMENT_3D('',#2030,#1622,#1623);
#1408=AXIS2_PLACEMENT_3D('',#2036,#1627,#1628);
#1409=AXIS2_PLACEMENT_3D('',#2042,#1632,#1633);
#1410=AXIS2_PLACEMENT_3D('',#2043,#1634,#1635);
#1411=AXIS2_PLACEMENT_3D('',#2047,#1637,#1638);
#1412=AXIS2_PLACEMENT_3D('',#2049,#1640,#1641);
#1413=AXIS2_PLACEMENT_3D('',#2053,#1644,#1645);
#1414=AXIS2_PLACEMENT_3D('',#2059,#1649,#1650);
#1415=AXIS2_PLACEMENT_3D('',#2060,#1651,#1652);
#1416=AXIS2_PLACEMENT_3D('',#2063,#1654,#1655);
#1417=AXIS2_PLACEMENT_3D('',#2064,#1656,#1657);
#1418=AXIS2_PLACEMENT_3D('',#2070,#1661,#1662);
#1419=AXIS2_PLACEMENT_3D('',#2076,#1666,#1667);
#1420=AXIS2_PLACEMENT_3D('',#2077,#1668,#1669);
#1421=AXIS2_PLACEMENT_3D('',#2081,#1671,#1672);
#1422=AXIS2_PLACEMENT_3D('',#2083,#1674,#1675);
#1423=AXIS2_PLACEMENT_3D('',#2092,#1680,#1681);
#1424=AXIS2_PLACEMENT_3D('',#2098,#1685,#1686);
#1425=AXIS2_PLACEMENT_3D('',#2104,#1690,#1691);
#1426=AXIS2_PLACEMENT_3D('',#2105,#1692,#1693);
#1427=AXIS2_PLACEMENT_3D('',#2107,#1694,#1695);
#1428=AXIS2_PLACEMENT_3D('',#2108,#1696,#1697);
#1429=AXIS2_PLACEMENT_3D('',#2110,#1698,#1699);
#1430=AXIS2_PLACEMENT_3D('',#2111,#1700,#1701);
#1431=AXIS2_PLACEMENT_3D('',#2113,#1702,#1703);
#1432=AXIS2_PLACEMENT_3D('',#2114,#1704,#1705);
#1433=AXIS2_PLACEMENT_3D('',#2116,#1706,#1707);
#1434=AXIS2_PLACEMENT_3D('',#2119,#1710,#1711);
#1435=AXIS2_PLACEMENT_3D('',#2120,#1712,#1713);
#1436=AXIS2_PLACEMENT_3D('',#2137,#1722,#1723);
#1437=AXIS2_PLACEMENT_3D('',#2143,#1727,#1728);
#1438=AXIS2_PLACEMENT_3D('',#2147,#1731,#1732);
#1439=AXIS2_PLACEMENT_3D('',#2151,#1735,#1736);
#1440=AXIS2_PLACEMENT_3D('',#2154,#1739,#1740);
#1441=AXIS2_PLACEMENT_3D('',#2156,#1742,#1743);
#1442=AXIS2_PLACEMENT_3D('',#2158,#1745,#1746);
#1443=AXIS2_PLACEMENT_3D('',#2160,#1748,#1749);
#1444=AXIS2_PLACEMENT_3D('',#2162,#1751,#1752);
#1445=AXIS2_PLACEMENT_3D('',#2164,#1754,#1755);
#1446=AXIS2_PLACEMENT_3D('',#2166,#1757,#1758);
#1447=AXIS2_PLACEMENT_3D('',#2168,#1760,#1761);
#1448=AXIS2_PLACEMENT_3D('',#2169,#1762,#1763);
#1449=AXIS2_PLACEMENT_3D('',#2170,#1764,#1765);
#1450=AXIS2_PLACEMENT_3D('',#2171,#1766,#1767);
#1451=AXIS2_PLACEMENT_3D('',#2172,#1768,#1769);
#1452=AXIS2_PLACEMENT_3D('',#2174,#1770,#1771);
#1453=AXIS2_PLACEMENT_3D('',#2175,#1772,#1773);
#1454=AXIS2_PLACEMENT_3D('',#2176,#1774,#1775);
#1455=AXIS2_PLACEMENT_3D('',#2178,#1776,#1777);
#1456=AXIS2_PLACEMENT_3D('',#2179,#1778,#1779);
#1457=AXIS2_PLACEMENT_3D('',#2180,#1780,#1781);
#1458=AXIS2_PLACEMENT_3D('',#2182,#1782,#1783);
#1459=AXIS2_PLACEMENT_3D('',#2183,#1784,#1785);
#1460=AXIS2_PLACEMENT_3D('',#2184,#1786,#1787);
#1461=AXIS2_PLACEMENT_3D('',#2186,#1788,#1789);
#1462=AXIS2_PLACEMENT_3D('',#2187,#1790,#1791);
#1463=AXIS2_PLACEMENT_3D('',#2188,#1792,#1793);
#1464=AXIS2_PLACEMENT_3D('',#2189,#1794,#1795);
#1465=AXIS2_PLACEMENT_3D('',#2190,#1796,#1797);
#1466=AXIS2_PLACEMENT_3D('',#2192,#1799,#1800);
#1467=AXIS2_PLACEMENT_3D('',#2194,#1802,#1803);
#1468=AXIS2_PLACEMENT_3D('',#2195,#1804,#1805);
#1469=AXIS2_PLACEMENT_3D('',#2201,#1809,#1810);
#1470=AXIS2_PLACEMENT_3D('',#2205,#1813,#1814);
#1471=AXIS2_PLACEMENT_3D('',#2208,#1817,#1818);
#1472=AXIS2_PLACEMENT_3D('',#2210,#1820,#1821);
#1473=AXIS2_PLACEMENT_3D('',#2217,#1826,#1827);
#1474=AXIS2_PLACEMENT_3D('',#2218,#1828,#1829);
#1475=AXIS2_PLACEMENT_3D('',#2219,#1830,#1831);
#1476=AXIS2_PLACEMENT_3D('',#2222,#1833,#1834);
#1477=AXIS2_PLACEMENT_3D('',#2223,#1835,#1836);
#1478=AXIS2_PLACEMENT_3D('',#2227,#1839,#1840);
#1479=AXIS2_PLACEMENT_3D('',#2228,#1841,#1842);
#1480=AXIS2_PLACEMENT_3D('',#2229,#1843,#1844);
#1481=DIRECTION('',(0.,0.,1.));
#1482=DIRECTION('',(1.,0.,0.));
#1483=DIRECTION('',(2.0202524953146E-16,2.999519565324E-32,1.));
#1484=DIRECTION('',(1.,0.,-2.0202524953146E-16));
#1485=DIRECTION('',(-3.85432370860688E-48,-1.,2.999519565324E-32));
#1486=DIRECTION('',(1.,-9.91411059519767E-48,-2.0202524953146E-16));
#1487=DIRECTION('',(-3.85432370860688E-48,-1.,2.999519565324E-32));
#1488=DIRECTION('',(-1.,9.43857715062929E-48,2.0202524953146E-16));
#1489=DIRECTION('',(-3.85432370860688E-48,-1.,2.999519565324E-32));
#1490=DIRECTION('',(0.,-2.999519565324E-32,-1.));
#1491=DIRECTION('',(-3.85432370860688E-48,-1.,2.999519565324E-32));
#1492=DIRECTION('',(0.,-2.999519565324E-32,-1.));
#1493=DIRECTION('',(-3.3787902640385E-48,-1.,2.999519565324E-32));
#1494=DIRECTION('',(0.,-2.999519565324E-32,-1.));
#1495=DIRECTION('',(-3.85432370860688E-48,-1.,2.999519565324E-32));
#1496=DIRECTION('',(3.96696595167925E-48,1.,-2.999519565324E-32));
#1497=DIRECTION('',(0.,2.999519565324E-32,1.));
#1498=DIRECTION('',(-3.85432370860688E-48,-1.,2.999519565324E-32));
#1499=DIRECTION('',(-3.85432370860688E-48,-1.,2.999519565324E-32));
#1500=DIRECTION('',(0.,-2.999519565324E-32,-1.));
#1501=DIRECTION('',(-3.85432370860688E-48,-1.,2.999519565324E-32));
#1502=DIRECTION('',(0.,-2.999519565324E-32,-1.));
#1503=DIRECTION('',(-3.85432370860688E-48,-1.,2.999519565324E-32));
#1504=DIRECTION('',(3.96696595167925E-48,1.,-2.999519565324E-32));
#1505=DIRECTION('',(0.,2.999519565324E-32,1.));
#1506=DIRECTION('',(-3.85432370860688E-48,-1.,2.999519565324E-32));
#1507=DIRECTION('',(-3.3787902640385E-48,-1.,2.999519565324E-32));
#1508=DIRECTION('',(0.,-2.999519565324E-32,-1.));
#1509=DIRECTION('',(-3.3787902640385E-48,-1.,2.999519565324E-32));
#1510=DIRECTION('',(0.,-2.999519565324E-32,-1.));
#1511=DIRECTION('',(1.15611193750585E-79,2.999519565324E-32,1.));
#1512=DIRECTION('',(-1.15611193750585E-79,-2.999519565324E-32,-1.));
#1513=DIRECTION('',(-1.,-2.94561770614337E-49,-1.224646799147E-16));
#1514=DIRECTION('',(1.224646799147E-16,-2.999519565324E-32,-1.));
#1515=DIRECTION('',(-1.,3.3787902640385E-48,0.));
#1516=DIRECTION('',(0.,2.999519565324E-32,1.));
#1517=DIRECTION('',(-1.,-2.94561770614337E-49,-1.224646799147E-16));
#1518=DIRECTION('',(0.,2.999519565324E-32,1.));
#1519=DIRECTION('',(-1.,3.3787902640385E-48,0.));
#1520=DIRECTION('',(1.224646799147E-16,-2.999519565324E-32,-1.));
#1521=DIRECTION('',(-1.,-2.94561770614337E-49,-1.224646799147E-16));
#1522=DIRECTION('',(-1.224646799147E-16,2.999519565324E-32,1.));
#1523=DIRECTION('',(1.,3.67335203465283E-48,1.224646799147E-16));
#1524=DIRECTION('',(-1.,2.93613917026418E-49,-1.224646799147E-16));
#1525=DIRECTION('',(3.85432370860688E-48,1.,-2.999519565324E-32));
#1526=DIRECTION('',(3.67335203465283E-48,1.,-2.999519565324E-32));
#1527=DIRECTION('',(1.,2.94561770614337E-49,1.224646799147E-16));
#1528=DIRECTION('',(-3.67335203465283E-48,-1.,2.999519565324E-32));
#1529=DIRECTION('',(-3.85432370860688E-48,-1.,2.999519565324E-32));
#1530=DIRECTION('',(-1.,2.93613917026418E-49,-1.224646799147E-16));
#1531=DIRECTION('',(-3.67335203465283E-48,-1.,2.999519565324E-32));
#1532=DIRECTION('',(1.,-2.93613917026418E-49,1.224646799147E-16));
#1533=DIRECTION('',(3.67335203465283E-48,1.,-2.999519565324E-32));
#1534=DIRECTION('',(3.96696595167925E-48,1.,-2.999519565324E-32));
#1535=DIRECTION('',(0.,2.999519565324E-32,1.));
#1536=DIRECTION('',(-1.15611193750585E-79,-2.999519565324E-32,-1.));
#1537=DIRECTION('',(-1.224646799147E-16,2.999519565324E-32,1.));
#1538=DIRECTION('',(-1.,2.93613917026418E-49,-1.224646799147E-16));
#1539=DIRECTION('',(-3.85432370860688E-48,-1.,2.999519565324E-32));
#1540=DIRECTION('',(0.,-2.999519565324E-32,-1.));
#1541=DIRECTION('',(-3.85432370860688E-48,-1.,2.999519565324E-32));
#1542=DIRECTION('',(0.,-2.999519565324E-32,-1.));
#1543=DIRECTION('',(-1.,1.80971673954044E-49,-1.224646799147E-16));
#1544=DIRECTION('',(1.224646799147E-16,-2.999519565324E-32,-1.));
#1545=DIRECTION('',(-1.,1.80971673954044E-49,-1.224646799147E-16));
#1546=DIRECTION('',(1.224646799147E-16,-2.999519565324E-32,-1.));
#1547=DIRECTION('',(-1.,1.80971673954044E-49,-1.224646799147E-16));
#1548=DIRECTION('',(-3.85432370860688E-48,-1.,2.999519565324E-32));
#1549=DIRECTION('',(0.,-2.999519565324E-32,-1.));
#1550=DIRECTION('',(-1.,1.08609522962275E-47,2.33591694770751E-16));
#1551=DIRECTION('',(-1.,0.,-1.224646799147E-16));
#1552=DIRECTION('',(-1.224646799147E-16,0.,1.));
#1553=DIRECTION('',(3.67335203465283E-48,1.,-2.999519565324E-32));
#1554=DIRECTION('',(1.224646799147E-16,-2.999519565324E-32,-1.));
#1555=DIRECTION('',(3.67335203465283E-48,1.,-2.999519565324E-32));
#1556=DIRECTION('',(3.85432370860688E-48,1.,-2.999519565324E-32));
#1557=DIRECTION('',(0.,2.999519565324E-32,1.));
#1558=DIRECTION('',(1.,-1.80971673954044E-49,1.224646799147E-16));
#1559=DIRECTION('',(1.224646799147E-16,-2.999519565324E-32,-1.));
#1560=DIRECTION('',(1.,-1.80971673954044E-49,1.224646799147E-16));
#1561=DIRECTION('',(1.,0.,1.224646799147E-16));
#1562=DIRECTION('',(1.224646799147E-16,0.,-1.));
#1563=DIRECTION('',(-3.67335203465283E-48,-1.,2.999519565324E-32));
#1564=DIRECTION('',(-3.67335203465283E-48,-1.,2.999519565324E-32));
#1565=DIRECTION('',(1.224646799147E-16,-2.999519565324E-32,-1.));
#1566=DIRECTION('',(1.,3.67335203465283E-48,1.224646799147E-16));
#1567=DIRECTION('',(1.224646799147E-16,-2.999519565324E-32,-1.));
#1568=DIRECTION('',(-1.,0.,-1.224646799147E-16));
#1569=DIRECTION('',(1.224646799147E-16,-2.999519565324E-32,-1.));
#1570=DIRECTION('',(-1.,0.,-1.224646799147E-16));
#1571=DIRECTION('',(1.224646799147E-16,-2.999519565324E-32,-1.));
#1572=DIRECTION('',(-1.,0.,-1.224646799147E-16));
#1573=DIRECTION('',(1.224646799147E-16,-2.999519565324E-32,-1.));
#1574=DIRECTION('',(-1.,0.,-1.224646799147E-16));
#1575=DIRECTION('',(-3.67335203465283E-48,-1.,2.999519565324E-32));
#1576=DIRECTION('',(1.,-1.52998497196645E-48,1.224646799147E-16));
#1577=DIRECTION('',(-3.67335203465283E-48,-1.,2.999519565324E-32));
#1578=DIRECTION('',(1.,-1.52998497196645E-48,1.224646799147E-16));
#1579=DIRECTION('',(1.,-1.6957899119711E-50,1.224646799147E-16));
#1580=DIRECTION('',(3.67335203465283E-48,1.,-2.999519565324E-32));
#1581=DIRECTION('',(1.,-6.50318079091587E-16,1.224646799147E-16));
#1582=DIRECTION('',(-5.78241158658936E-16,-1.,-4.08189227554318E-32));
#1583=DIRECTION('',(1.,-3.91585434757744E-16,1.224646799147E-16));
#1584=DIRECTION('',(-3.67335203465283E-48,-1.,2.999519565324E-32));
#1585=DIRECTION('',(1.,-6.50318079091586E-16,1.224646799147E-16));
#1586=DIRECTION('',(3.67335203465283E-48,1.,-2.999519565324E-32));
#1587=DIRECTION('',(0.,1.,-2.999519565324E-32));
#1588=DIRECTION('',(1.224646799147E-16,-2.999519565324E-32,-1.));
#1589=DIRECTION('',(-1.,0.,-1.224646799147E-16));
#1590=DIRECTION('',(-1.,0.,-1.224646799147E-16));
#1591=DIRECTION('',(-3.67335203465283E-48,-1.,2.999519565324E-32));
#1592=DIRECTION('',(-0.999063455306392,-0.0432690682965678,-1.22349986268571E-16));
#1593=DIRECTION('',(1.224646799147E-16,-2.999519565324E-32,-1.));
#1594=DIRECTION('',(-1.,0.,-1.224646799147E-16));
#1595=DIRECTION('',(0.,-1.,2.999519565324E-32));
#1596=DIRECTION('',(1.,2.94561770614337E-49,1.224646799147E-16));
#1597=DIRECTION('',(0.,-1.,2.999519565324E-32));
#1598=DIRECTION('',(1.224646799147E-16,-2.999519565324E-32,-1.));
#1599=DIRECTION('',(-1.,0.,-1.224646799147E-16));
#1600=DIRECTION('',(1.,0.,1.224646799147E-16));
#1601=DIRECTION('',(3.67335203465283E-48,1.,-2.999519565324E-32));
#1602=DIRECTION('',(1.,0.,1.224646799147E-16));
#1603=DIRECTION('',(1.224646799147E-16,-2.999519565324E-32,-1.));
#1604=DIRECTION('',(-1.,0.,-1.224646799147E-16));
#1605=DIRECTION('',(0.,1.,-2.999519565324E-32));
#1606=DIRECTION('',(0.,1.,0.));
#1607=DIRECTION('',(0.,0.,1.));
#1608=DIRECTION('',(-1.224646799147E-16,0.,1.));
#1609=DIRECTION('',(-1.,0.,0.));
#1610=DIRECTION('',(0.,0.,1.));
#1611=DIRECTION('',(-1.,0.,0.));
#1612=DIRECTION('',(0.,0.,1.));
#1613=DIRECTION('',(0.,0.,1.));
#1614=DIRECTION('',(0.,-1.,0.));
#1615=DIRECTION('',(0.,0.,-1.));
#1616=DIRECTION('',(1.,0.,0.));
#1617=DIRECTION('',(0.,0.,-1.));
#1618=DIRECTION('',(-1.,0.,0.));
#1619=DIRECTION('',(0.,0.,-1.));
#1620=DIRECTION('',(-1.,0.,0.));
#1621=DIRECTION('',(0.,1.,0.));
#1622=DIRECTION('',(0.0432690682965678,-0.999063455306392,0.));
#1623=DIRECTION('',(0.999063455306392,0.0432690682965678,0.));
#1624=DIRECTION('',(-1.224646799147E-16,-5.3038999384893E-18,1.));
#1625=DIRECTION('',(0.999063455306392,0.0432690682965678,0.));
#1626=DIRECTION('',(0.,0.,1.));
#1627=DIRECTION('',(1.,0.,0.));
#1628=DIRECTION('',(0.,0.,-1.));
#1629=DIRECTION('',(0.,2.999519565324E-32,1.));
#1630=DIRECTION('',(0.,0.,1.));
#1631=DIRECTION('',(0.,1.,0.));
#1632=DIRECTION('',(0.,0.,-1.));
#1633=DIRECTION('',(1.,0.,0.));
#1634=DIRECTION('',(0.,0.,-1.));
#1635=DIRECTION('',(-1.,0.,0.));
#1636=DIRECTION('',(1.,-3.3787902640385E-48,0.));
#1637=DIRECTION('',(0.,0.,-1.));
#1638=DIRECTION('',(-1.,0.,0.));
#1639=DIRECTION('',(0.,-1.,0.));
#1640=DIRECTION('',(-1.,0.,0.));
#1641=DIRECTION('',(0.,0.,1.));
#1642=DIRECTION('',(0.,-1.,0.));
#1643=DIRECTION('',(0.,0.,1.));
#1644=DIRECTION('',(0.,-1.,0.));
#1645=DIRECTION('',(0.,0.,-1.));
#1646=DIRECTION('',(-1.224646799147E-16,0.,1.));
#1647=DIRECTION('',(0.,0.,1.));
#1648=DIRECTION('',(1.,0.,0.));
#1649=DIRECTION('',(0.,0.,-1.));
#1650=DIRECTION('',(1.,0.,0.));
#1651=DIRECTION('',(0.,0.,-1.));
#1652=DIRECTION('',(-1.,0.,0.));
#1653=DIRECTION('',(0.,-1.,0.));
#1654=DIRECTION('',(0.,0.,-1.));
#1655=DIRECTION('',(-1.,0.,0.));
#1656=DIRECTION('',(0.,1.,0.));
#1657=DIRECTION('',(0.,0.,1.));
#1658=DIRECTION('',(-1.224646799147E-16,0.,1.));
#1659=DIRECTION('',(0.,0.,1.));
#1660=DIRECTION('',(-1.,0.,0.));
#1661=DIRECTION('',(1.,0.,0.));
#1662=DIRECTION('',(0.,0.,-1.));
#1663=DIRECTION('',(0.,2.999519565324E-32,1.));
#1664=DIRECTION('',(0.,1.,0.));
#1665=DIRECTION('',(0.,0.,1.));
#1666=DIRECTION('',(0.,0.,-1.));
#1667=DIRECTION('',(1.,0.,0.));
#1668=DIRECTION('',(0.,0.,-1.));
#1669=DIRECTION('',(-1.,0.,0.));
#1670=DIRECTION('',(0.,1.,0.));
#1671=DIRECTION('',(0.,0.,-1.));
#1672=DIRECTION('',(-1.,0.,0.));
#1673=DIRECTION('',(1.,-3.3787902640385E-48,0.));
#1674=DIRECTION('',(-1.,0.,-1.224646799147E-16));
#1675=DIRECTION('',(-1.224646799147E-16,0.,1.));
#1676=DIRECTION('',(-3.67335203465283E-48,-1.,2.999519565324E-32));
#1677=DIRECTION('',(-1.224646799147E-16,2.999519565324E-32,1.));
#1678=DIRECTION('',(-3.67335203465283E-48,-1.,2.999519565324E-32));
#1679=DIRECTION('',(-1.224646799147E-16,2.999519565324E-32,1.));
#1680=DIRECTION('',(-4.4623111922233E-16,-1.,-2.46523555303009E-32));
#1681=DIRECTION('',(1.,-4.4623111922233E-16,0.));
#1682=DIRECTION('',(1.,-4.4623111922233E-16,1.224646799147E-16));
#1683=DIRECTION('',(-1.224646799147E-16,2.999519565324E-32,1.));
#1684=DIRECTION('',(1.,-4.4623111922233E-16,1.224646799147E-16));
#1685=DIRECTION('',(-1.,0.,-1.224646799147E-16));
#1686=DIRECTION('',(-1.224646799147E-16,0.,1.));
#1687=DIRECTION('',(-3.67335203465283E-48,-1.,2.999519565324E-32));
#1688=DIRECTION('',(-1.224646799147E-16,2.999519565324E-32,1.));
#1689=DIRECTION('',(-3.67335203465283E-48,-1.,2.999519565324E-32));
#1690=DIRECTION('',(-1.224646799147E-16,2.999519565324E-32,1.));
#1691=DIRECTION('',(1.,0.,1.224646799147E-16));
#1692=DIRECTION('',(1.224646799147E-16,-2.999519565324E-32,-1.));
#1693=DIRECTION('',(-1.,0.,-1.224646799147E-16));
#1694=DIRECTION('',(-1.224646799147E-16,2.999519565324E-32,1.));
#1695=DIRECTION('',(1.,0.,1.224646799147E-16));
#1696=DIRECTION('',(1.224646799147E-16,-2.999519565324E-32,-1.));
#1697=DIRECTION('',(-1.,0.,-1.224646799147E-16));
#1698=DIRECTION('',(-1.224646799147E-16,2.999519565324E-32,1.));
#1699=DIRECTION('',(1.,0.,1.224646799147E-16));
#1700=DIRECTION('',(1.224646799147E-16,-2.999519565324E-32,-1.));
#1701=DIRECTION('',(-1.,0.,-1.224646799147E-16));
#1702=DIRECTION('',(-1.224646799147E-16,2.999519565324E-32,1.));
#1703=DIRECTION('',(1.,0.,1.224646799147E-16));
#1704=DIRECTION('',(1.224646799147E-16,-2.999519565324E-32,-1.));
#1705=DIRECTION('',(-1.,0.,-1.224646799147E-16));
#1706=DIRECTION('',(-4.4623111922233E-16,-1.,-2.46523555303009E-32));
#1707=DIRECTION('',(1.,-4.4623111922233E-16,0.));
#1708=DIRECTION('',(1.,-4.4623111922233E-16,1.224646799147E-16));
#1709=DIRECTION('',(1.,-4.4623111922233E-16,1.224646799147E-16));
#1710=DIRECTION('',(1.224646799147E-16,-2.999519565324E-32,-1.));
#1711=DIRECTION('',(1.,3.67335203465283E-48,1.224646799147E-16));
#1712=DIRECTION('',(1.224646799147E-16,-2.999519565324E-32,-1.));
#1713=DIRECTION('',(1.,3.67335203465283E-48,1.224646799147E-16));
#1714=DIRECTION('',(3.67335203465283E-48,1.,-2.999519565324E-32));
#1715=DIRECTION('',(1.,-1.69578991197112E-50,1.224646799147E-16));
#1716=DIRECTION('',(3.67335203465283E-48,1.,-2.999519565324E-32));
#1717=DIRECTION('',(1.,-6.50318079091586E-16,1.224646799147E-16));
#1718=DIRECTION('',(-3.67335203465283E-48,-1.,2.999519565324E-32));
#1719=DIRECTION('',(1.,-3.91585434757744E-16,1.224646799147E-16));
#1720=DIRECTION('',(-5.78241158658936E-16,-1.,-4.08189227554318E-32));
#1721=DIRECTION('',(1.,-6.50318079091587E-16,1.224646799147E-16));
#1722=DIRECTION('',(1.,0.,1.224646799147E-16));
#1723=DIRECTION('',(1.224646799147E-16,0.,-1.));
#1724=DIRECTION('',(1.224646799147E-16,-2.999519565324E-32,-1.));
#1725=DIRECTION('',(-3.67335203465283E-48,-1.,2.999519565324E-32));
#1726=DIRECTION('',(1.224646799147E-16,-2.999519565324E-32,-1.));
#1727=DIRECTION('',(5.20333700661929E-48,1.,-2.999519565324E-32));
#1728=DIRECTION('',(0.,2.999519565324E-32,1.));
#1729=DIRECTION('',(1.224646799147E-16,-2.999519565324E-32,-1.));
#1730=DIRECTION('',(1.,-1.52998497196645E-48,1.224646799147E-16));
#1731=DIRECTION('',(1.,0.,1.224646799147E-16));
#1732=DIRECTION('',(1.224646799147E-16,0.,-1.));
#1733=DIRECTION('',(-3.67335203465283E-48,-1.,2.999519565324E-32));
#1734=DIRECTION('',(1.224646799147E-16,-2.999519565324E-32,-1.));
#1735=DIRECTION('',(3.69030993377255E-48,1.,-2.999519565324E-32));
#1736=DIRECTION('',(0.,2.999519565324E-32,1.));
#1737=DIRECTION('',(1.224646799147E-16,-2.999519565324E-32,-1.));
#1738=DIRECTION('',(1.224646799147E-16,-2.999519565324E-32,-1.));
#1739=DIRECTION('',(-1.,0.,-1.224646799147E-16));
#1740=DIRECTION('',(-1.224646799147E-16,0.,1.));
#1741=DIRECTION('',(1.224646799147E-16,-2.999519565324E-32,-1.));
#1742=DIRECTION('',(6.50318079091586E-16,1.,4.96457997454536E-32));
#1743=DIRECTION('',(-1.,6.50318079091586E-16,0.));
#1744=DIRECTION('',(1.224646799147E-16,-2.999519565324E-32,-1.));
#1745=DIRECTION('',(1.,0.,1.224646799147E-16));
#1746=DIRECTION('',(1.224646799147E-16,0.,-1.));
#1747=DIRECTION('',(1.224646799147E-16,-2.999519565324E-32,-1.));
#1748=DIRECTION('',(3.91585434757744E-16,1.,1.79601892736258E-32));
#1749=DIRECTION('',(-1.,3.91585434757744E-16,0.));
#1750=DIRECTION('',(1.224646799147E-16,-2.999519565324E-32,-1.));
#1751=DIRECTION('',(1.,-5.78241158658936E-16,1.224646799147E-16));
#1752=DIRECTION('',(5.78241158658936E-16,1.,0.));
#1753=DIRECTION('',(1.224646799147E-16,-2.999519565324E-32,-1.));
#1754=DIRECTION('',(6.50318079091587E-16,1.,4.96457997454537E-32));
#1755=DIRECTION('',(-1.,6.50318079091587E-16,0.));
#1756=DIRECTION('',(1.224646799147E-16,-2.999519565324E-32,-1.));
#1757=DIRECTION('',(5.20333700661929E-48,1.,-2.999519565324E-32));
#1758=DIRECTION('',(0.,2.999519565324E-32,1.));
#1759=DIRECTION('',(1.,-1.52998497196645E-48,1.224646799147E-16));
#1760=DIRECTION('',(-1.,0.,-1.224646799147E-16));
#1761=DIRECTION('',(-1.224646799147E-16,0.,1.));
#1762=DIRECTION('',(1.224646799147E-16,-2.999519565324E-32,-1.));
#1763=DIRECTION('',(1.,3.67335203465283E-48,1.224646799147E-16));
#1764=DIRECTION('',(0.,0.,1.));
#1765=DIRECTION('',(1.,0.,0.));
#1766=DIRECTION('',(0.,0.,1.));
#1767=DIRECTION('',(1.,0.,0.));
#1768=DIRECTION('',(1.224646799147E-16,-2.999519565324E-32,-1.));
#1769=DIRECTION('',(-1.,0.,-1.224646799147E-16));
#1770=DIRECTION('',(0.,0.,1.));
#1771=DIRECTION('',(1.,0.,0.));
#1772=DIRECTION('',(0.,0.,1.));
#1773=DIRECTION('',(1.,0.,0.));
#1774=DIRECTION('',(1.224646799147E-16,-2.999519565324E-32,-1.));
#1775=DIRECTION('',(-1.,0.,-1.224646799147E-16));
#1776=DIRECTION('',(0.,0.,1.));
#1777=DIRECTION('',(1.,0.,0.));
#1778=DIRECTION('',(0.,0.,1.));
#1779=DIRECTION('',(1.,0.,0.));
#1780=DIRECTION('',(1.224646799147E-16,-2.999519565324E-32,-1.));
#1781=DIRECTION('',(-1.,0.,-1.224646799147E-16));
#1782=DIRECTION('',(0.,0.,1.));
#1783=DIRECTION('',(1.,0.,0.));
#1784=DIRECTION('',(0.,0.,1.));
#1785=DIRECTION('',(1.,0.,0.));
#1786=DIRECTION('',(1.224646799147E-16,-2.999519565324E-32,-1.));
#1787=DIRECTION('',(-1.,0.,-1.224646799147E-16));
#1788=DIRECTION('',(1.224646799147E-16,-2.999519565324E-32,-1.));
#1789=DIRECTION('',(1.,3.67335203465283E-48,1.224646799147E-16));
#1790=DIRECTION('',(1.224646799147E-16,-2.999519565324E-32,-1.));
#1791=DIRECTION('',(1.,3.67335203465283E-48,1.224646799147E-16));
#1792=DIRECTION('',(1.224646799147E-16,-2.999519565324E-32,-1.));
#1793=DIRECTION('',(1.,3.67335203465283E-48,1.224646799147E-16));
#1794=DIRECTION('',(1.224646799147E-16,-2.999519565324E-32,-1.));
#1795=DIRECTION('',(1.,3.67335203465283E-48,1.224646799147E-16));
#1796=DIRECTION('',(1.,0.,1.224646799147E-16));
#1797=DIRECTION('',(1.224646799147E-16,0.,-1.));
#1798=DIRECTION('',(1.224646799147E-16,-2.999519565324E-32,-1.));
#1799=DIRECTION('',(-1.,0.,-1.224646799147E-16));
#1800=DIRECTION('',(-1.224646799147E-16,0.,1.));
#1801=DIRECTION('',(1.224646799147E-16,-2.999519565324E-32,-1.));
#1802=DIRECTION('',(3.3787902640385E-48,1.,-2.999519565324E-32));
#1803=DIRECTION('',(0.,2.999519565324E-32,1.));
#1804=DIRECTION('',(-3.96696595167925E-48,-1.,2.999519565324E-32));
#1805=DIRECTION('',(0.,-2.999519565324E-32,-1.));
#1806=DIRECTION('',(-1.224646799147E-16,2.999519565324E-32,1.));
#1807=DIRECTION('',(1.,-2.93613917026418E-49,1.224646799147E-16));
#1808=DIRECTION('',(-1.224646799147E-16,2.999519565324E-32,1.));
#1809=DIRECTION('',(-1.,0.,-1.224646799147E-16));
#1810=DIRECTION('',(-1.224646799147E-16,0.,1.));
#1811=DIRECTION('',(-1.224646799147E-16,2.999519565324E-32,1.));
#1812=DIRECTION('',(-3.67335203465283E-48,-1.,2.999519565324E-32));
#1813=DIRECTION('',(3.96696595167925E-48,1.,-2.999519565324E-32));
#1814=DIRECTION('',(0.,2.999519565324E-32,1.));
#1815=DIRECTION('',(1.15611193750585E-79,2.999519565324E-32,1.));
#1816=DIRECTION('',(-1.,2.93613917026418E-49,-1.224646799147E-16));
#1817=DIRECTION('',(1.,0.,1.224646799147E-16));
#1818=DIRECTION('',(1.224646799147E-16,0.,-1.));
#1819=DIRECTION('',(3.67335203465283E-48,1.,-2.999519565324E-32));
#1820=DIRECTION('',(-1.224646799147E-16,2.999519565324E-32,1.));
#1821=DIRECTION('',(1.,3.67335203465283E-48,1.224646799147E-16));
#1822=DIRECTION('',(-3.85432370860688E-48,-1.,2.999519565324E-32));
#1823=DIRECTION('',(1.,-1.80971673954044E-49,1.224646799147E-16));
#1824=DIRECTION('',(1.,-1.80971673954044E-49,1.224646799147E-16));
#1825=DIRECTION('',(-3.85432370860688E-48,-1.,2.999519565324E-32));
#1826=DIRECTION('',(1.,-3.85432370860688E-48,0.));
#1827=DIRECTION('',(3.85432370860688E-48,1.,0.));
#1828=DIRECTION('',(-1.,3.85432370860688E-48,0.));
#1829=DIRECTION('',(-3.85432370860688E-48,-1.,0.));
#1830=DIRECTION('',(-3.85432370860688E-48,-1.,2.999519565324E-32));
#1831=DIRECTION('',(0.,-2.999519565324E-32,-1.));
#1832=DIRECTION('',(-3.85432370860688E-48,-1.,2.999519565324E-32));
#1833=DIRECTION('',(-3.85432370860688E-48,-1.,2.999519565324E-32));
#1834=DIRECTION('',(0.,-2.999519565324E-32,-1.));
#1835=DIRECTION('',(2.33591694770751E-16,2.999519565324E-32,1.));
#1836=DIRECTION('',(1.,0.,-2.33591694770751E-16));
#1837=DIRECTION('',(-3.85432370860688E-48,-1.,2.999519565324E-32));
#1838=DIRECTION('',(-1.,1.08609522962275E-47,2.33591694770751E-16));
#1839=DIRECTION('',(-3.85432370860688E-48,-1.,2.999519565324E-32));
#1840=DIRECTION('',(0.,-2.999519565324E-32,-1.));
#1841=DIRECTION('',(-3.85432370860688E-48,-1.,2.999519565324E-32));
#1842=DIRECTION('',(0.,-2.999519565324E-32,-1.));
#1843=DIRECTION('',(-3.85432370860688E-48,-1.,2.999519565324E-32));
#1844=DIRECTION('',(1.,-3.85432370860688E-48,1.15611193750585E-79));
#1845=CARTESIAN_POINT('',(0.,0.,0.));
#1846=CARTESIAN_POINT('',(0.068708899955412,-0.038,0.002095000014901));
#1847=CARTESIAN_POINT('',(0.065488899955412,-0.038,0.002095000014901));
#1848=CARTESIAN_POINT('',(0.065488899955412,-0.061,0.002095000014901));
#1849=CARTESIAN_POINT('',(0.065488899955412,-0.062,0.002095000014901));
#1850=CARTESIAN_POINT('',(0.068708899955412,-0.062,0.002095000014901));
#1851=CARTESIAN_POINT('',(0.071928899955412,-0.062,0.00209500001490101));
#1852=CARTESIAN_POINT('',(0.071928899955412,-0.038,0.002095000014901));
#1853=CARTESIAN_POINT('',(0.071928899955412,-0.061,0.002095000014901));
#1854=CARTESIAN_POINT('',(0.0575,-0.061,0.002095000014901));
#1855=CARTESIAN_POINT('',(0.065488899955412,-0.038,0.003845000014901));
#1856=CARTESIAN_POINT('',(0.065488899955412,-0.062,0.003845000014901));
#1857=CARTESIAN_POINT('',(0.0638601274172942,-0.062,0.003205));
#1858=CARTESIAN_POINT('',(0.065488899955412,-0.061,0.003845000014901));
#1859=CARTESIAN_POINT('',(0.063738899955412,-0.061,0.003845000014901));
#1860=CARTESIAN_POINT('',(0.063738899955412,-0.038,0.003845000014901));
#1861=CARTESIAN_POINT('',(0.063738899955412,-0.06185,0.003845000014901));
#1862=CARTESIAN_POINT('',(0.065488899955412,-0.06185,0.003845000014901));
#1863=CARTESIAN_POINT('',(0.0638601274172942,-0.06185,0.003205));
#1864=CARTESIAN_POINT('',(0.0638601274172942,-0.038,0.003205));
#1865=CARTESIAN_POINT('',(0.071928899955412,-0.038,0.00384500001490102));
#1866=CARTESIAN_POINT('',(0.071928899955412,-0.062,0.00384500001490102));
#1867=CARTESIAN_POINT('',(0.0735576724935298,-0.062,0.003205));
#1868=CARTESIAN_POINT('',(0.0735576724935298,-0.038,0.003205));
#1869=CARTESIAN_POINT('',(0.0735576724935298,-0.06185,0.003205));
#1870=CARTESIAN_POINT('',(0.071928899955412,-0.06185,0.00384500001490102));
#1871=CARTESIAN_POINT('',(0.073678899955412,-0.06185,0.003845000014901));
#1872=CARTESIAN_POINT('',(0.073678899955412,-0.038,0.003845000014901));
#1873=CARTESIAN_POINT('',(0.073678899955412,-0.061,0.003845000014901));
#1874=CARTESIAN_POINT('',(0.071928899955412,-0.061,0.00384500001490102));
#1875=CARTESIAN_POINT('',(0.0575,-0.061,0.004205));
#1876=CARTESIAN_POINT('',(0.063738899955412,-0.061,0.004205));
#1877=CARTESIAN_POINT('',(0.063738899955412,-0.061,0.004205));
#1878=CARTESIAN_POINT('',(0.073678899955412,-0.061,0.004205));
#1879=CARTESIAN_POINT('',(0.073678899955412,-0.061,0.004205));
#1880=CARTESIAN_POINT('',(0.0575,-0.061,0.004205));
#1881=CARTESIAN_POINT('',(0.096,-0.061,0.004205));
#1882=CARTESIAN_POINT('',(0.096,-0.061,0.004205));
#1883=CARTESIAN_POINT('',(0.096,-0.061,0.));
#1884=CARTESIAN_POINT('',(0.0575,-0.061,0.));
#1885=CARTESIAN_POINT('',(0.08915,-0.061,0.));
#1886=CARTESIAN_POINT('',(0.08915,-0.061,-0.0052));
#1887=CARTESIAN_POINT('',(0.08915,-0.061,-0.004245));
#1888=CARTESIAN_POINT('',(0.0575,-0.061,-0.004245));
#1889=CARTESIAN_POINT('',(0.02585,-0.061,-0.004245));
#1890=CARTESIAN_POINT('',(0.02585,-0.061,-0.0052));
#1891=CARTESIAN_POINT('',(0.02585,-0.061,0.));
#1892=CARTESIAN_POINT('',(0.0575,-0.061,0.));
#1893=CARTESIAN_POINT('',(0.019,-0.061,0.));
#1894=CARTESIAN_POINT('',(0.019,-0.061,0.004205));
#1895=CARTESIAN_POINT('',(0.019,-0.061,0.004205));
#1896=CARTESIAN_POINT('',(0.0575,-0.061,0.004205));
#1897=CARTESIAN_POINT('',(0.0575,-0.0385,0.004205));
#1898=CARTESIAN_POINT('',(0.0575,-0.06185,0.004205));
#1899=CARTESIAN_POINT('',(0.063738899955412,-0.06185,0.004205));
#1900=CARTESIAN_POINT('',(0.01815,-0.06185,0.004205));
#1901=CARTESIAN_POINT('',(0.063738899955412,-0.0385,0.004205));
#1902=CARTESIAN_POINT('',(0.019,-0.0385,0.004205));
#1903=CARTESIAN_POINT('',(0.019,-0.016,0.004205));
#1904=CARTESIAN_POINT('',(0.0575,-0.016,0.004205));
#1905=CARTESIAN_POINT('',(0.096,-0.016,0.004205));
#1906=CARTESIAN_POINT('',(0.096,-0.0385,0.004205));
#1907=CARTESIAN_POINT('',(0.073678899955412,-0.0385,0.004205));
#1908=CARTESIAN_POINT('',(0.073678899955412,-0.06185,0.004205));
#1909=CARTESIAN_POINT('',(0.0575,-0.06185,0.004205));
#1910=CARTESIAN_POINT('',(0.09685,-0.06185,0.004205));
#1911=CARTESIAN_POINT('',(0.09685,-0.0385,0.004205));
#1912=CARTESIAN_POINT('',(0.09685,-0.01515,0.004205));
#1913=CARTESIAN_POINT('',(0.0575,-0.01515,0.004205));
#1914=CARTESIAN_POINT('',(0.01815,-0.01515,0.004205));
#1915=CARTESIAN_POINT('',(0.01815,-0.0385,0.004205));
#1916=CARTESIAN_POINT('',(0.0575,-0.06185,0.003205));
#1917=CARTESIAN_POINT('',(0.063738899955412,-0.06185,0.003205));
#1918=CARTESIAN_POINT('',(0.01815,-0.06185,0.003205));
#1919=CARTESIAN_POINT('',(0.01815,-0.06185,0.003205));
#1920=CARTESIAN_POINT('',(0.0575,-0.06185,0.003205));
#1921=CARTESIAN_POINT('',(0.0575,-0.063,-0.004245));
#1922=CARTESIAN_POINT('',(0.065488899955412,-0.063,0.00384500001490099));
#1923=CARTESIAN_POINT('',(0.0617939168727814,-0.063,0.003205));
#1924=CARTESIAN_POINT('',(0.065488899955412,-0.063,9.50000149009973E-5));
#1925=CARTESIAN_POINT('',(0.0575,-0.063,0.003205));
#1926=CARTESIAN_POINT('',(0.017,-0.063,0.003205));
#1927=CARTESIAN_POINT('',(0.017,-0.063,-0.004245));
#1928=CARTESIAN_POINT('',(0.017,-0.063,-0.006245));
#1929=CARTESIAN_POINT('',(0.0575,-0.063,-0.006245));
#1930=CARTESIAN_POINT('',(0.098,-0.063,-0.006245));
#1931=CARTESIAN_POINT('',(0.098,-0.063,-0.004245));
#1932=CARTESIAN_POINT('',(0.098,-0.063,0.003205));
#1933=CARTESIAN_POINT('',(0.0575,-0.063,0.003205));
#1934=CARTESIAN_POINT('',(0.0756238830380427,-0.063,0.003205));
#1935=CARTESIAN_POINT('',(0.071928899955412,-0.063,0.00384500001490099));
#1936=CARTESIAN_POINT('',(0.071928899955412,-0.063,9.50000149009954E-5));
#1937=CARTESIAN_POINT('',(0.068708899955412,-0.063,9.50000149009966E-5));
#1938=CARTESIAN_POINT('',(0.017,-0.0385,-0.004245));
#1939=CARTESIAN_POINT('',(0.017,-0.0385,0.003205));
#1940=CARTESIAN_POINT('',(0.017,-0.014,0.003205));
#1941=CARTESIAN_POINT('',(0.017,-0.014,-0.004245));
#1942=CARTESIAN_POINT('',(0.017,-0.014,-0.006245));
#1943=CARTESIAN_POINT('',(0.017,-0.0385,-0.006245));
#1944=CARTESIAN_POINT('',(0.0575,-0.014,-0.004245));
#1945=CARTESIAN_POINT('',(0.0575,-0.014,0.003205));
#1946=CARTESIAN_POINT('',(0.098,-0.014,0.003205));
#1947=CARTESIAN_POINT('',(0.098,-0.014,-0.004245));
#1948=CARTESIAN_POINT('',(0.098,-0.014,-0.006245));
#1949=CARTESIAN_POINT('',(0.0575,-0.014,-0.006245));
#1950=CARTESIAN_POINT('',(0.098,-0.0385,-0.004245));
#1951=CARTESIAN_POINT('',(0.098,-0.0385,0.003205));
#1952=CARTESIAN_POINT('',(0.098,-0.0385,-0.006245));
#1953=CARTESIAN_POINT('',(0.0575,-0.0385,-0.004245));
#1954=CARTESIAN_POINT('',(0.026,-0.051,-0.004245));
#1955=CARTESIAN_POINT('',(0.02325,-0.051,-0.004245));
#1956=CARTESIAN_POINT('',(0.026,-0.026,-0.004245));
#1957=CARTESIAN_POINT('',(0.02325,-0.026,-0.004245));
#1958=CARTESIAN_POINT('',(0.089,-0.051,-0.004245));
#1959=CARTESIAN_POINT('',(0.08625,-0.051,-0.004245));
#1960=CARTESIAN_POINT('',(0.089,-0.026,-0.004245));
#1961=CARTESIAN_POINT('',(0.08625,-0.026,-0.004245));
#1962=CARTESIAN_POINT('',(0.06216,-0.0273,-0.004245));
#1963=CARTESIAN_POINT('',(0.06216,-0.02605,-0.004245));
#1964=CARTESIAN_POINT('',(0.06216,-0.02855,-0.004245));
#1965=CARTESIAN_POINT('',(0.05716,-0.02855,-0.004245));
#1966=CARTESIAN_POINT('',(0.05216,-0.02855,-0.004245));
#1967=CARTESIAN_POINT('',(0.05216,-0.0273,-0.004245));
#1968=CARTESIAN_POINT('',(0.05216,-0.02605,-0.004245));
#1969=CARTESIAN_POINT('',(0.05716,-0.02605,-0.004245));
#1970=CARTESIAN_POINT('',(0.05716,-0.0572,-0.004245));
#1971=CARTESIAN_POINT('',(0.05011,-0.0572,-0.004245));
#1972=CARTESIAN_POINT('',(0.06421,-0.0572,-0.004245));
#1973=CARTESIAN_POINT('',(0.05011,-0.05485,-0.004245));
#1974=CARTESIAN_POINT('',(0.05011,-0.0545,-0.004245));
#1975=CARTESIAN_POINT('',(0.044775,-0.0545,-0.004245));
#1976=CARTESIAN_POINT('',(0.03944,-0.0545,-0.004245));
#1977=CARTESIAN_POINT('',(0.03944,-0.0425,-0.004245));
#1978=CARTESIAN_POINT('',(0.03944,-0.0305,-0.004245));
#1979=CARTESIAN_POINT('',(0.05716,-0.0305,-0.004245));
#1980=CARTESIAN_POINT('',(0.07488,-0.0305,-0.004245));
#1981=CARTESIAN_POINT('',(0.07488,-0.0425,-0.004245));
#1982=CARTESIAN_POINT('',(0.07488,-0.0545,-0.004245));
#1983=CARTESIAN_POINT('',(0.069545,-0.0545,-0.004245));
#1984=CARTESIAN_POINT('',(0.06421,-0.0545,-0.004245));
#1985=CARTESIAN_POINT('',(0.06421,-0.0562,-0.004245));
#1986=CARTESIAN_POINT('',(0.08915,-0.0385,-0.004245));
#1987=CARTESIAN_POINT('',(0.08915,-0.05715,-0.004245));
#1988=CARTESIAN_POINT('',(0.09215,-0.05715,-0.004245));
#1989=CARTESIAN_POINT('',(0.09215,-0.05415,-0.004245));
#1990=CARTESIAN_POINT('',(0.0575,-0.05415,-0.004245));
#1991=CARTESIAN_POINT('',(0.096,-0.05415,-0.004245));
#1992=CARTESIAN_POINT('',(0.096,-0.0385,-0.004245));
#1993=CARTESIAN_POINT('',(0.096,-0.0226860701935487,-0.004245));
#1994=CARTESIAN_POINT('',(0.0568884669980718,-0.024379976204879,-0.004245));
#1995=CARTESIAN_POINT('',(0.0922798072048897,-0.0228471903659192,-0.004245));
#1996=CARTESIAN_POINT('',(0.09215,-0.01985,-0.004245));
#1997=CARTESIAN_POINT('',(0.08915,-0.01985,-0.004245));
#1998=CARTESIAN_POINT('',(0.08915,-0.0385,-0.004245));
#1999=CARTESIAN_POINT('',(0.08915,-0.016,-0.004245));
#2000=CARTESIAN_POINT('',(0.0575,-0.016,-0.004245));
#2001=CARTESIAN_POINT('',(0.02585,-0.016,-0.004245));
#2002=CARTESIAN_POINT('',(0.02585,-0.0385,-0.004245));
#2003=CARTESIAN_POINT('',(0.02585,-0.01985,-0.004245));
#2004=CARTESIAN_POINT('',(0.02285,-0.01985,-0.004245));
#2005=CARTESIAN_POINT('',(0.02285,-0.02285,-0.004245));
#2006=CARTESIAN_POINT('',(0.0575,-0.02285,-0.004245));
#2007=CARTESIAN_POINT('',(0.019,-0.02285,-0.004245));
#2008=CARTESIAN_POINT('',(0.019,-0.0385,-0.004245));
#2009=CARTESIAN_POINT('',(0.019,-0.05415,-0.004245));
#2010=CARTESIAN_POINT('',(0.0575,-0.05415,-0.004245));
#2011=CARTESIAN_POINT('',(0.02285,-0.05415,-0.004245));
#2012=CARTESIAN_POINT('',(0.02285,-0.05715,-0.004245));
#2013=CARTESIAN_POINT('',(0.02585,-0.05715,-0.004245));
#2014=CARTESIAN_POINT('',(0.02585,-0.0385,-0.004245));
#2015=CARTESIAN_POINT('',(0.019925,-0.05415,-0.0052));
#2016=CARTESIAN_POINT('',(0.019,-0.05415,-0.0052));
#2017=CARTESIAN_POINT('',(0.019,-0.05415,0.));
#2018=CARTESIAN_POINT('',(0.019925,-0.05415,0.));
#2019=CARTESIAN_POINT('',(0.02285,-0.05415,0.));
#2020=CARTESIAN_POINT('',(0.02285,-0.05415,-0.0052));
#2021=CARTESIAN_POINT('',(0.02585,-0.060075,-0.0052));
#2022=CARTESIAN_POINT('',(0.02585,-0.05715,-0.0052));
#2023=CARTESIAN_POINT('',(0.02585,-0.05715,0.));
#2024=CARTESIAN_POINT('',(0.02585,-0.060075,0.));
#2025=CARTESIAN_POINT('',(0.0575,-0.0385,0.));
#2026=CARTESIAN_POINT('',(0.02285,-0.05715,0.));
#2027=CARTESIAN_POINT('',(0.02175,-0.05715,0.));
#2028=CARTESIAN_POINT('',(0.02285,-0.05715,0.));
#2029=CARTESIAN_POINT('',(0.019,-0.0385,0.));
#2030=CARTESIAN_POINT('',(0.0951399036024448,-0.0227233206500335,-0.0052));
#2031=CARTESIAN_POINT('',(0.096,-0.0226860701935487,-0.0052));
#2032=CARTESIAN_POINT('',(0.096,-0.0226860701935487,0.));
#2033=CARTESIAN_POINT('',(0.0951399036024448,-0.0227233206500335,0.));
#2034=CARTESIAN_POINT('',(0.0922798072048897,-0.0228471903659192,0.));
#2035=CARTESIAN_POINT('',(0.0922798072048897,-0.0228471903659192,-0.0052));
#2036=CARTESIAN_POINT('',(0.08915,-0.016925,-0.0052));
#2037=CARTESIAN_POINT('',(0.08915,-0.016,-0.0052));
#2038=CARTESIAN_POINT('',(0.08915,-0.016,0.));
#2039=CARTESIAN_POINT('',(0.08915,-0.01985,-0.0052));
#2040=CARTESIAN_POINT('',(0.08915,-0.01985,0.));
#2041=CARTESIAN_POINT('',(0.08915,-0.016925,0.));
#2042=CARTESIAN_POINT('',(0.0575,-0.0385,0.));
#2043=CARTESIAN_POINT('',(0.09215,-0.01985,0.));
#2044=CARTESIAN_POINT('',(0.09105,-0.01985,0.));
#2045=CARTESIAN_POINT('',(0.0575,-0.016,0.));
#2046=CARTESIAN_POINT('',(0.096,-0.016,0.));
#2047=CARTESIAN_POINT('',(0.09215,-0.01985,0.));
#2048=CARTESIAN_POINT('',(0.096,-0.0385,0.));
#2049=CARTESIAN_POINT('',(0.08915,-0.060075,-0.0052));
#2050=CARTESIAN_POINT('',(0.08915,-0.060075,0.));
#2051=CARTESIAN_POINT('',(0.08915,-0.05715,0.));
#2052=CARTESIAN_POINT('',(0.08915,-0.05715,-0.0052));
#2053=CARTESIAN_POINT('',(0.095075,-0.05415,-0.0052));
#2054=CARTESIAN_POINT('',(0.096,-0.05415,-0.0052));
#2055=CARTESIAN_POINT('',(0.096,-0.05415,0.));
#2056=CARTESIAN_POINT('',(0.09215,-0.05415,-0.0052));
#2057=CARTESIAN_POINT('',(0.09215,-0.05415,0.));
#2058=CARTESIAN_POINT('',(0.095075,-0.05415,0.));
#2059=CARTESIAN_POINT('',(0.0575,-0.0385,0.));
#2060=CARTESIAN_POINT('',(0.09215,-0.05715,0.));
#2061=CARTESIAN_POINT('',(0.09105,-0.05715,0.));
#2062=CARTESIAN_POINT('',(0.096,-0.0385,0.));
#2063=CARTESIAN_POINT('',(0.09215,-0.05715,0.));
#2064=CARTESIAN_POINT('',(0.019925,-0.02285,-0.0052));
#2065=CARTESIAN_POINT('',(0.019,-0.02285,-0.0052));
#2066=CARTESIAN_POINT('',(0.019,-0.02285,0.));
#2067=CARTESIAN_POINT('',(0.02285,-0.02285,-0.0052));
#2068=CARTESIAN_POINT('',(0.02285,-0.02285,0.));
#2069=CARTESIAN_POINT('',(0.019925,-0.02285,0.));
#2070=CARTESIAN_POINT('',(0.02585,-0.016925,-0.0052));
#2071=CARTESIAN_POINT('',(0.02585,-0.016,-0.0052));
#2072=CARTESIAN_POINT('',(0.02585,-0.016,0.));
#2073=CARTESIAN_POINT('',(0.02585,-0.016925,0.));
#2074=CARTESIAN_POINT('',(0.02585,-0.01985,0.));
#2075=CARTESIAN_POINT('',(0.02585,-0.01985,-0.0052));
#2076=CARTESIAN_POINT('',(0.0575,-0.0385,0.));
#2077=CARTESIAN_POINT('',(0.02285,-0.01985,0.));
#2078=CARTESIAN_POINT('',(0.02175,-0.01985,0.));
#2079=CARTESIAN_POINT('',(0.019,-0.0385,0.));
#2080=CARTESIAN_POINT('',(0.019,-0.016,0.));
#2081=CARTESIAN_POINT('',(0.02285,-0.01985,0.));
#2082=CARTESIAN_POINT('',(0.0575,-0.016,0.));
#2083=CARTESIAN_POINT('',(0.07271,-0.04057,-0.006245));
#2084=CARTESIAN_POINT('',(0.07271,-0.04057,-0.005645));
#2085=CARTESIAN_POINT('',(0.07271,-0.03267,-0.005645));
#2086=CARTESIAN_POINT('',(0.07271,-0.04847,-0.005645));
#2087=CARTESIAN_POINT('',(0.07271,-0.03267,-0.006245));
#2088=CARTESIAN_POINT('',(0.07271,-0.03267,-0.006245));
#2089=CARTESIAN_POINT('',(0.07271,-0.04057,-0.006245));
#2090=CARTESIAN_POINT('',(0.07271,-0.04847,-0.006245));
#2091=CARTESIAN_POINT('',(0.07271,-0.04847,-0.006245));
#2092=CARTESIAN_POINT('',(0.05716,-0.03267,-0.006245));
#2093=CARTESIAN_POINT('',(0.05716,-0.03267,-0.005645));
#2094=CARTESIAN_POINT('',(0.04161,-0.03267,-0.005645));
#2095=CARTESIAN_POINT('',(0.04161,-0.03267,-0.006245));
#2096=CARTESIAN_POINT('',(0.04161,-0.03267,-0.006245));
#2097=CARTESIAN_POINT('',(0.05716,-0.03267,-0.006245));
#2098=CARTESIAN_POINT('',(0.04161,-0.04057,-0.006245));
#2099=CARTESIAN_POINT('',(0.04161,-0.04057,-0.005645));
#2100=CARTESIAN_POINT('',(0.04161,-0.04847,-0.005645));
#2101=CARTESIAN_POINT('',(0.04161,-0.04847,-0.006245));
#2102=CARTESIAN_POINT('',(0.04161,-0.04847,-0.006245));
#2103=CARTESIAN_POINT('',(0.04161,-0.04057,-0.006245));
#2104=CARTESIAN_POINT('',(0.026,-0.051,-0.006245));
#2105=CARTESIAN_POINT('',(0.026,-0.051,-0.006245));
#2106=CARTESIAN_POINT('',(0.02325,-0.051,-0.006245));
#2107=CARTESIAN_POINT('',(0.026,-0.026,-0.006245));
#2108=CARTESIAN_POINT('',(0.026,-0.026,-0.006245));
#2109=CARTESIAN_POINT('',(0.02325,-0.026,-0.006245));
#2110=CARTESIAN_POINT('',(0.089,-0.051,-0.006245));
#2111=CARTESIAN_POINT('',(0.089,-0.051,-0.006245));
#2112=CARTESIAN_POINT('',(0.08625,-0.051,-0.006245));
#2113=CARTESIAN_POINT('',(0.089,-0.026,-0.006245));
#2114=CARTESIAN_POINT('',(0.089,-0.026,-0.006245));
#2115=CARTESIAN_POINT('',(0.08625,-0.026,-0.006245));
#2116=CARTESIAN_POINT('',(0.05716,-0.04847,-0.006245));
#2117=CARTESIAN_POINT('',(0.05716,-0.04847,-0.005645));
#2118=CARTESIAN_POINT('',(0.05716,-0.04847,-0.006245));
#2119=CARTESIAN_POINT('',(0.0575,-0.0385,-0.006245));
#2120=CARTESIAN_POINT('',(0.0575,-0.0385,-0.005645));
#2121=CARTESIAN_POINT('',(0.05011,-0.0385,-0.005645));
#2122=CARTESIAN_POINT('',(0.05011,-0.0572,-0.005645));
#2123=CARTESIAN_POINT('',(0.05011,-0.0545,-0.005645));
#2124=CARTESIAN_POINT('',(0.0575,-0.0572,-0.005645));
#2125=CARTESIAN_POINT('',(0.06421,-0.0572,-0.005645));
#2126=CARTESIAN_POINT('',(0.06421,-0.0385,-0.005645));
#2127=CARTESIAN_POINT('',(0.06421,-0.0545,-0.005645));
#2128=CARTESIAN_POINT('',(0.0575,-0.0545,-0.005645));
#2129=CARTESIAN_POINT('',(0.07488,-0.0545,-0.005645));
#2130=CARTESIAN_POINT('',(0.07488,-0.0385,-0.005645));
#2131=CARTESIAN_POINT('',(0.07488,-0.0305,-0.005645));
#2132=CARTESIAN_POINT('',(0.0575,-0.0305,-0.005645));
#2133=CARTESIAN_POINT('',(0.03944,-0.0305,-0.005645));
#2134=CARTESIAN_POINT('',(0.03944,-0.0385,-0.005645));
#2135=CARTESIAN_POINT('',(0.03944,-0.0545,-0.005645));
#2136=CARTESIAN_POINT('',(0.0575,-0.0545,-0.005645));
#2137=CARTESIAN_POINT('',(0.06216,-0.0273,-0.004245));
#2138=CARTESIAN_POINT('',(0.06216,-0.02605,-0.004245));
#2139=CARTESIAN_POINT('',(0.06216,-0.02605,-0.005645));
#2140=CARTESIAN_POINT('',(0.06216,-0.0385,-0.005645));
#2141=CARTESIAN_POINT('',(0.06216,-0.02855,-0.005645));
#2142=CARTESIAN_POINT('',(0.06216,-0.02855,-0.004245));
#2143=CARTESIAN_POINT('',(0.05716,-0.02605,-0.004245));
#2144=CARTESIAN_POINT('',(0.05216,-0.02605,-0.004245));
#2145=CARTESIAN_POINT('',(0.05216,-0.02605,-0.005645));
#2146=CARTESIAN_POINT('',(0.0575,-0.02605,-0.005645));
#2147=CARTESIAN_POINT('',(0.05216,-0.0273,-0.004245));
#2148=CARTESIAN_POINT('',(0.05216,-0.0385,-0.005645));
#2149=CARTESIAN_POINT('',(0.05216,-0.02855,-0.005645));
#2150=CARTESIAN_POINT('',(0.05216,-0.02855,-0.004245));
#2151=CARTESIAN_POINT('',(0.05716,-0.0572,-0.004245));
#2152=CARTESIAN_POINT('',(0.05011,-0.0572,-0.004245));
#2153=CARTESIAN_POINT('',(0.06421,-0.0572,-0.004245));
#2154=CARTESIAN_POINT('',(0.06421,-0.0562,-0.004245));
#2155=CARTESIAN_POINT('',(0.06421,-0.0545,-0.004245));
#2156=CARTESIAN_POINT('',(0.069545,-0.0545,-0.004245));
#2157=CARTESIAN_POINT('',(0.07488,-0.0545,-0.004245));
#2158=CARTESIAN_POINT('',(0.07488,-0.0425,-0.004245));
#2159=CARTESIAN_POINT('',(0.07488,-0.0305,-0.004245));
#2160=CARTESIAN_POINT('',(0.05716,-0.0305,-0.004245));
#2161=CARTESIAN_POINT('',(0.03944,-0.0305,-0.004245));
#2162=CARTESIAN_POINT('',(0.03944,-0.0425,-0.004245));
#2163=CARTESIAN_POINT('',(0.03944,-0.0545,-0.004245));
#2164=CARTESIAN_POINT('',(0.044775,-0.0545,-0.004245));
#2165=CARTESIAN_POINT('',(0.05011,-0.0545,-0.004245));
#2166=CARTESIAN_POINT('',(0.05716,-0.02855,-0.004245));
#2167=CARTESIAN_POINT('',(0.0575,-0.02855,-0.005645));
#2168=CARTESIAN_POINT('',(0.05011,-0.05485,-0.004245));
#2169=CARTESIAN_POINT('',(0.0575,-0.0385,-0.005645));
#2170=CARTESIAN_POINT('',(0.02285,-0.05715,-0.0052));
#2171=CARTESIAN_POINT('',(0.02285,-0.05715,-0.0052));
#2172=CARTESIAN_POINT('',(0.02285,-0.05715,-0.004245));
#2173=CARTESIAN_POINT('',(0.02175,-0.05715,-0.004245));
#2174=CARTESIAN_POINT('',(0.09215,-0.01985,-0.0052));
#2175=CARTESIAN_POINT('',(0.09215,-0.01985,-0.0052));
#2176=CARTESIAN_POINT('',(0.09215,-0.01985,-0.004245));
#2177=CARTESIAN_POINT('',(0.09105,-0.01985,-0.004245));
#2178=CARTESIAN_POINT('',(0.09215,-0.05715,-0.0052));
#2179=CARTESIAN_POINT('',(0.09215,-0.05715,-0.0052));
#2180=CARTESIAN_POINT('',(0.09215,-0.05715,-0.004245));
#2181=CARTESIAN_POINT('',(0.09105,-0.05715,-0.004245));
#2182=CARTESIAN_POINT('',(0.02285,-0.01985,-0.0052));
#2183=CARTESIAN_POINT('',(0.02285,-0.01985,-0.0052));
#2184=CARTESIAN_POINT('',(0.02285,-0.01985,-0.004245));
#2185=CARTESIAN_POINT('',(0.02175,-0.01985,-0.004245));
#2186=CARTESIAN_POINT('',(0.0575,-0.0385,-0.004245));
#2187=CARTESIAN_POINT('',(0.0575,-0.0385,-0.004245));
#2188=CARTESIAN_POINT('',(0.0575,-0.0385,-0.004245));
#2189=CARTESIAN_POINT('',(0.0575,-0.0385,-0.004245));
#2190=CARTESIAN_POINT('',(0.096,-0.0385,0.004205));
#2191=CARTESIAN_POINT('',(0.096,-0.016,0.004205));
#2192=CARTESIAN_POINT('',(0.019,-0.0385,0.004205));
#2193=CARTESIAN_POINT('',(0.019,-0.016,0.004205));
#2194=CARTESIAN_POINT('',(0.0575,-0.016,0.004205));
#2195=CARTESIAN_POINT('',(0.0575,-0.01515,0.003205));
#2196=CARTESIAN_POINT('',(0.09685,-0.01515,0.003205));
#2197=CARTESIAN_POINT('',(0.09685,-0.01515,0.003205));
#2198=CARTESIAN_POINT('',(0.0575,-0.01515,0.003205));
#2199=CARTESIAN_POINT('',(0.01815,-0.01515,0.003205));
#2200=CARTESIAN_POINT('',(0.01815,-0.01515,0.003205));
#2201=CARTESIAN_POINT('',(0.09685,-0.0385,0.003205));
#2202=CARTESIAN_POINT('',(0.09685,-0.06185,0.003205));
#2203=CARTESIAN_POINT('',(0.09685,-0.06185,0.003205));
#2204=CARTESIAN_POINT('',(0.09685,-0.0385,0.003205));
#2205=CARTESIAN_POINT('',(0.0575,-0.06185,0.003205));
#2206=CARTESIAN_POINT('',(0.073678899955412,-0.06185,0.003205));
#2207=CARTESIAN_POINT('',(0.0575,-0.06185,0.003205));
#2208=CARTESIAN_POINT('',(0.01815,-0.0385,0.003205));
#2209=CARTESIAN_POINT('',(0.01815,-0.0385,0.003205));
#2210=CARTESIAN_POINT('',(0.0575,-0.0385,0.003205));
#2211=CARTESIAN_POINT('',(0.0617939168727814,-0.062,0.003205));
#2212=CARTESIAN_POINT('',(0.0617939168727814,-0.062,0.003205));
#2213=CARTESIAN_POINT('',(0.0575,-0.062,0.003205));
#2214=CARTESIAN_POINT('',(0.0575,-0.062,0.003205));
#2215=CARTESIAN_POINT('',(0.0756238830380427,-0.062,0.003205));
#2216=CARTESIAN_POINT('',(0.0756238830380427,-0.062,0.003205));
#2217=CARTESIAN_POINT('',(0.063738899955412,-0.038,0.004200000014901));
#2218=CARTESIAN_POINT('',(0.073678899955412,-0.038,0.004200000014901));
#2219=CARTESIAN_POINT('',(0.065488899955412,-0.062,0.00384500001490099));
#2220=CARTESIAN_POINT('',(0.065488899955412,-0.062,9.50000149009973E-5));
#2221=CARTESIAN_POINT('',(0.065488899955412,-0.062,9.50000149009973E-5));
#2222=CARTESIAN_POINT('',(0.065488899955412,-0.062,0.00384500001490099));
#2223=CARTESIAN_POINT('',(0.068708899955412,-0.062,9.50000149009966E-5));
#2224=CARTESIAN_POINT('',(0.071928899955412,-0.062,9.50000149009954E-5));
#2225=CARTESIAN_POINT('',(0.071928899955412,-0.062,9.50000149009954E-5));
#2226=CARTESIAN_POINT('',(0.068708899955412,-0.062,9.50000149009966E-5));
#2227=CARTESIAN_POINT('',(0.071928899955412,-0.062,0.00384500001490099));
#2228=CARTESIAN_POINT('',(0.071928899955412,-0.062,0.00384500001490099));
#2229=CARTESIAN_POINT('',(0.0575,-0.062,0.0141500000074505));
#2230=MECHANICAL_DESIGN_GEOMETRIC_PRESENTATION_REPRESENTATION('',(#1363),
#2231);
#2231=(
GEOMETRIC_REPRESENTATION_CONTEXT(3)
GLOBAL_UNCERTAINTY_ASSIGNED_CONTEXT((#2232))
GLOBAL_UNIT_ASSIGNED_CONTEXT((#2235,#2234,#2233))
REPRESENTATION_CONTEXT('case-top','TOP_LEVEL_ASSEMBLY_PART')
);
#2232=UNCERTAINTY_MEASURE_WITH_UNIT(LENGTH_MEASURE(1.E-8),#2235,
'DISTANCE_ACCURACY_VALUE','Maximum Tolerance applied to model');
#2233=(
NAMED_UNIT(*)
SI_UNIT($,.STERADIAN.)
SOLID_ANGLE_UNIT()
);
#2234=(
NAMED_UNIT(*)
PLANE_ANGLE_UNIT()
SI_UNIT($,.RADIAN.)
);
#2235=(
LENGTH_UNIT()
NAMED_UNIT(*)
SI_UNIT($,.METRE.)
);
#2236=PRODUCT_DEFINITION_SHAPE('','',#2237);
#2237=PRODUCT_DEFINITION('','',#2239,#2238);
#2238=PRODUCT_DEFINITION_CONTEXT('',#2245,'design');
#2239=PRODUCT_DEFINITION_FORMATION_WITH_SPECIFIED_SOURCE('','',#2241,
 .NOT_KNOWN.);
#2240=PRODUCT_RELATED_PRODUCT_CATEGORY('','',(#2241));
#2241=PRODUCT('case-top','case-top','case-top',(#2243));
#2242=PRODUCT_CATEGORY('','');
#2243=PRODUCT_CONTEXT('',#2245,'mechanical');
#2244=APPLICATION_PROTOCOL_DEFINITION('international standard',
'ap242_managed_model_based_3d_engineering',2020,#2245);
#2245=APPLICATION_CONTEXT('managed model based 3d engineering');
ENDSEC;
END-ISO-10303-21;
